<svg width="70" height="74" viewBox="0 0 70 74" fill="none" xmlns="http://www.w3.org/2000/svg">
<g clip-path="url(#clip0_444_264)">
<path d="M68.9062 30.4706L61.6683 30.4706L60.0633 26.0791C60.3119 26.0172 60.5305 25.8697 60.6803 25.6628C60.8302 25.4559 60.9016 25.2029 60.882 24.9486C60.8788 24.9056 60.5995 20.618 63.1806 17.5685C63.2734 17.4592 63.3437 17.3328 63.3874 17.1964C63.431 17.06 63.4473 16.9165 63.4351 16.7739C63.4229 16.6313 63.3826 16.4925 63.3164 16.3654C63.2503 16.2383 63.1596 16.1255 63.0496 16.0333C62.9395 15.9412 62.8123 15.8715 62.6752 15.8283C62.538 15.7852 62.3937 15.7693 62.2504 15.7817C62.1071 15.7941 61.9677 15.8345 61.8401 15.9006C61.7125 15.9666 61.5993 16.0571 61.5069 16.1668C59.227 18.8608 58.7672 22.2015 58.694 23.9412H54.3227C54.0415 23.9404 53.7709 24.0477 53.5673 24.2407C53.3637 24.4337 53.2429 24.6975 53.2301 24.9769C53.2172 25.2564 53.3133 25.5301 53.4984 25.7407C53.6834 25.9514 53.9431 26.0828 54.2232 26.1076L52.6286 30.4706H48.125V21.7647H52.5C52.7901 21.7647 53.0683 21.65 53.2734 21.446C53.4785 21.2419 53.5938 20.9651 53.5938 20.6765C53.5938 20.3878 53.4785 20.111 53.2734 19.907C53.0683 19.7029 52.7901 19.5882 52.5 19.5882H48.4201L50.7057 10.3735C51.3172 10.6696 51.8396 11.1207 52.2202 11.6815C52.2306 11.6972 52.2452 11.7082 52.2563 11.7232C52.2907 11.7699 52.3288 11.8138 52.3702 11.8545C52.3903 11.874 52.4099 11.8934 52.4313 11.9112C52.4797 11.9513 52.5316 11.9872 52.5864 12.0183C52.6025 12.0276 52.6171 12.0391 52.6336 12.0475C52.7061 12.0844 52.7824 12.1132 52.8612 12.1333L52.8695 12.1363C52.8806 12.139 52.8923 12.1382 52.9035 12.1406L52.9046 12.1407C52.9677 12.1544 53.0319 12.1625 53.0964 12.1649C53.1111 12.1655 53.1257 12.1704 53.1403 12.1704C53.1607 12.1704 53.1802 12.1637 53.2004 12.1625C53.2899 12.155 53.3784 12.1395 53.4651 12.1162C53.48 12.1115 53.4941 12.1038 53.5089 12.0983C53.5776 12.0756 53.6439 12.046 53.7068 12.0101C54.385 11.6108 55.1875 11.4751 55.9602 11.6288C56.7329 11.7826 57.4212 12.215 57.8929 12.8431C57.9019 12.8565 57.9144 12.8658 57.9239 12.8788C57.9604 12.929 58.0012 12.9759 58.0457 13.0192C58.0657 13.0385 58.0856 13.057 58.1068 13.0746C58.1521 13.1116 58.2004 13.1449 58.2511 13.1742C58.2719 13.1864 58.2913 13.2005 58.3128 13.2112C58.3856 13.2484 58.4624 13.2773 58.5418 13.2974C58.6278 13.3185 58.7164 13.3293 58.8051 13.3293C58.9004 13.3281 58.9952 13.3144 59.087 13.2885C59.1015 13.2847 59.1157 13.2821 59.1301 13.2776C59.22 13.2491 59.3059 13.2091 59.3855 13.1586C59.3931 13.1538 59.4017 13.1525 59.4091 13.1476C59.4184 13.1414 59.4254 13.1333 59.4345 13.1269C59.4734 13.0992 59.5104 13.069 59.5453 13.0365C59.5604 13.0226 59.5765 13.0098 59.5907 12.9952C59.6359 12.9491 59.6769 12.899 59.7132 12.8456L59.7164 12.8415C59.7528 12.7861 59.784 12.7276 59.8096 12.6665C59.8188 12.6449 59.8244 12.6224 59.8322 12.6003C59.8437 12.5677 59.8573 12.5362 59.8657 12.502C59.8684 12.4912 59.8694 12.4804 59.8721 12.4696L59.8778 12.4403C60.186 11.1748 60.2381 9.86092 60.031 8.5752C59.8239 7.28948 59.3618 6.05759 58.6716 4.95128C57.2397 2.64639 54.956 0.992511 52.3114 0.345169C52.2616 0.327175 52.2105 0.312868 52.1585 0.302364C52.1269 0.294827 52.097 0.283564 52.0653 0.276295L52.0482 0.27327C52.0316 0.269716 52.015 0.267143 51.9982 0.264368C46.4022 -0.978996 40.7801 2.36047 39.4197 7.743C39.4174 7.7508 39.4147 7.75838 39.4126 7.76624C39.411 7.77245 39.4086 7.77826 39.407 7.78448C39.4009 7.80915 39.4008 7.83363 39.3965 7.8583C39.388 7.89971 39.382 7.94157 39.3785 7.98367C39.3766 8.01698 39.3794 8.04951 39.3805 8.08244C39.3808 8.12019 39.383 8.1579 39.3872 8.19542C39.3921 8.23024 39.4015 8.26347 39.4097 8.29735C39.417 8.33248 39.4262 8.36721 39.437 8.40142C39.451 8.43816 39.467 8.47412 39.485 8.50913C39.4967 8.53384 39.5043 8.55951 39.5181 8.58367C39.5206 8.58806 39.5242 8.59138 39.5267 8.59569C39.5487 8.63039 39.5725 8.66383 39.5983 8.69585C39.6169 8.72056 39.6334 8.7474 39.6537 8.77015C39.6758 8.79485 39.7023 8.81544 39.7267 8.83813C39.7531 8.86471 39.7809 8.88993 39.8099 8.91368C39.8307 8.92929 39.8547 8.94078 39.8767 8.95496C39.9136 8.98034 39.9521 9.00345 39.9919 9.02414C40.0116 9.03364 40.0335 9.03925 40.054 9.04762C40.1 9.0676 40.1474 9.08442 40.1958 9.09793L40.2065 9.10174C40.2283 9.10716 40.25 9.10706 40.2718 9.11107C40.3164 9.12036 40.3616 9.12683 40.4071 9.13047C40.4406 9.13243 40.4732 9.12957 40.5064 9.12844C40.5807 9.13007 40.6547 9.11994 40.7258 9.09844C40.7591 9.09038 40.7925 9.084 40.8254 9.07264C40.8651 9.0578 40.9038 9.04067 40.9415 9.02133C40.9641 9.0105 40.9876 9.00373 41.0097 8.99121C41.7311 8.61364 42.5681 8.51718 43.3571 8.72067C44.1462 8.92416 44.8306 9.41298 45.2769 10.0917C45.2793 10.0953 45.2827 10.0977 45.2852 10.1013C45.3002 10.1233 45.3178 10.143 45.3344 10.1638C45.3556 10.1905 45.3771 10.2163 45.4004 10.2406C45.4156 10.2564 45.4301 10.2724 45.4462 10.2873C45.4595 10.2996 45.4737 10.31 45.4875 10.3216C45.5108 10.3411 45.5342 10.3598 45.5588 10.3771C45.5867 10.3968 45.6159 10.4139 45.6456 10.4309C45.661 10.4398 45.6752 10.4506 45.691 10.4587C45.7063 10.4665 45.7222 10.4724 45.7378 10.4795C45.7709 10.4939 45.8048 10.5067 45.8392 10.5178C45.865 10.5265 45.89 10.5368 45.9163 10.5436C45.9261 10.5461 45.936 10.5478 45.9458 10.55C45.9762 10.5569 46.0074 10.5604 46.0387 10.5648C46.0755 10.5703 46.1124 10.5739 46.1495 10.5756C46.1627 10.5761 46.1752 10.5795 46.1885 10.5795L46.1899 10.5794C46.2005 10.5794 46.2115 10.5794 46.2222 10.5789C46.2371 10.5785 46.2509 10.5743 46.2657 10.5732C46.3053 10.5702 46.3447 10.5651 46.3837 10.5578C46.4152 10.5521 46.4465 10.5465 46.477 10.5382C46.488 10.5352 46.499 10.5334 46.51 10.53C46.5348 10.5224 46.5586 10.5114 46.583 10.5019C46.6195 10.4881 46.6553 10.4723 46.6901 10.4546C46.7036 10.4477 46.7178 10.444 46.7311 10.4365C47.2925 10.1219 47.9213 9.94497 48.5652 9.9205L46.1673 19.5882H41.5625C41.2724 19.5882 40.9942 19.7029 40.7891 19.907C40.584 20.111 40.4688 20.3878 40.4688 20.6765C40.4688 20.9651 40.584 21.2419 40.7891 21.446C40.9942 21.65 41.2724 21.7647 41.5625 21.7647H45.9375V30.4706H41.4339L39.8393 26.1076C40.1194 26.0828 40.3791 25.9514 40.5641 25.7407C40.7491 25.5301 40.8453 25.2564 40.8324 24.977C40.8196 24.6975 40.6988 24.4337 40.4952 24.2407C40.2916 24.0477 40.021 23.9404 39.7398 23.9412H35.3685C35.2953 22.2015 34.8355 18.8608 32.5556 16.1668C32.3686 15.9466 32.1014 15.8092 31.8127 15.7848C31.524 15.7604 31.2374 15.851 31.0157 16.0366C30.7941 16.2223 30.6555 16.4878 30.6304 16.775C30.6053 17.0622 30.6957 17.3476 30.8819 17.5685C33.463 20.618 33.1837 24.9056 33.1805 24.946C33.1595 25.2008 33.2304 25.4548 33.3804 25.6624C33.5303 25.87 33.7497 26.0178 33.9991 26.0794L32.3942 30.4706H1.09375C0.803674 30.4706 0.525483 30.5852 0.320368 30.7893C0.115253 30.9934 1.45027e-05 31.2702 0 31.5588L0 37C1.45027e-05 37.2886 0.115253 37.5654 0.320368 37.7695C0.525483 37.9735 0.803674 38.0882 1.09375 38.0882H3.28125L3.28125 68.5588C3.28125 68.8474 3.39648 69.1242 3.6016 69.3283C3.80672 69.5324 4.08492 69.647 4.375 69.647C4.66508 69.647 4.94328 69.5324 5.1484 69.3283C5.35352 69.1242 5.46875 68.8474 5.46875 68.5588L5.46875 38.0882H65.625V68.5588C65.625 68.8474 65.7402 69.1242 65.9454 69.3283C66.1505 69.5324 66.4287 69.647 66.7188 69.647C67.0088 69.647 67.287 69.5324 67.4921 69.3283C67.6973 69.1242 67.8125 68.8474 67.8125 68.5588V38.0882H68.9062C69.1963 38.0882 69.4745 37.9735 69.6796 37.7695C69.8848 37.5654 70 37.2886 70 37V31.5588C70 31.2702 69.8848 30.9934 69.6796 30.7893C69.4745 30.5852 69.1963 30.4706 68.9062 30.4706ZM56.8082 6.09155C57.5489 7.28553 57.9469 8.65842 57.9592 10.0614C57.0262 9.56665 55.9703 9.34812 54.9164 9.43169C55.3238 7.56959 55.2456 5.63475 54.6894 3.81118C55.5374 4.42762 56.257 5.20208 56.8082 6.09155ZM42.2683 6.44603C42.8824 5.34974 43.7386 4.40639 44.7723 3.68702C45.806 2.96764 46.9902 2.491 48.2359 2.29299C46.8751 3.67869 45.891 5.38606 45.3762 7.25444C44.4416 6.68938 43.3613 6.40839 42.2683 6.44603ZM47.4717 7.8687C48.0618 5.5028 49.9407 3.19441 51.6007 2.54037C52.7713 3.84613 53.3544 6.73055 52.7528 9.09542C52.0133 8.52447 51.1586 8.11926 50.2471 7.90753C49.3356 7.6958 48.3888 7.68255 47.4717 7.8687ZM56.5475 26.1176H57.7493L59.3402 30.4706H54.9566L56.5475 26.1176ZM36.3131 26.1176H37.515L39.1059 30.4706H34.7223L36.3131 26.1176ZM67.8125 35.9117H2.1875V32.647H67.8125V35.9117Z" fill="#B99D75"/>
<path d="M11.4849 50.603H16.9536C17.2437 50.603 17.5219 50.4883 17.727 50.2842C17.9321 50.0802 18.0473 49.8034 18.0474 49.5148V44.0736C18.0473 43.785 17.9321 43.5082 17.727 43.3041C17.5219 43.1 17.2437 42.9854 16.9536 42.9854H11.4849C11.1948 42.9854 10.9166 43.1 10.7115 43.3041C10.5064 43.5082 10.3911 43.785 10.3911 44.0736V49.5148C10.3911 49.8034 10.5064 50.0802 10.7115 50.2842C10.9166 50.4883 11.1948 50.603 11.4849 50.603ZM12.5786 45.1618H15.8599V48.4265H12.5786V45.1618Z" fill="#B99D75"/>
<path d="M10.3906 61.4852C10.3906 61.7738 10.5059 62.0506 10.711 62.2547C10.9161 62.4588 11.1943 62.5734 11.4844 62.5735H16.9531C17.2432 62.5734 17.5214 62.4588 17.7265 62.2547C17.9316 62.0506 18.0469 61.7738 18.0469 61.4852V56.044C18.0469 55.7554 17.9316 55.4786 17.7265 55.2746C17.5214 55.0705 17.2432 54.9558 16.9531 54.9558H11.4844C11.1943 54.9558 10.9161 55.0705 10.711 55.2746C10.5059 55.4786 10.3906 55.7554 10.3906 56.044V61.4852ZM12.5781 57.1323H15.8594V60.397H12.5781V57.1323Z" fill="#B99D75"/>
<path d="M54.1406 50.6028H59.6094C59.8995 50.6027 60.1776 50.4881 60.3828 50.284C60.5879 50.0799 60.7031 49.8031 60.7031 49.5145V44.0733C60.7031 43.7847 60.5879 43.5079 60.3828 43.3039C60.1776 43.0998 59.8995 42.9851 59.6094 42.9851H54.1406C53.8505 42.9851 53.5724 43.0998 53.3672 43.3039C53.1621 43.5079 53.0469 43.7847 53.0469 44.0733V49.5145C53.0469 49.8031 53.1621 50.0799 53.3672 50.284C53.5724 50.4881 53.8505 50.6027 54.1406 50.6028ZM55.2344 45.1616H58.5156V48.4263H55.2344V45.1616Z" fill="#B99D75"/>
<path d="M53.0474 61.4855C53.0474 61.7741 53.1626 62.0509 53.3677 62.2549C53.5728 62.459 53.851 62.5737 54.1411 62.5737H59.6099C59.8999 62.5737 60.1781 62.459 60.3832 62.2549C60.5884 62.0509 60.7036 61.7741 60.7036 61.4855V56.0443C60.7036 55.7557 60.5884 55.4789 60.3832 55.2748C60.1781 55.0707 59.8999 54.9561 59.6099 54.9561H54.1411C53.851 54.9561 53.5728 55.0707 53.3677 55.2748C53.1626 55.4789 53.0474 55.7557 53.0474 56.0443V61.4855ZM55.2349 57.1325H58.5161V60.3972H55.2349V57.1325Z" fill="#B99D75"/>
<path d="M39.9224 50.6028H45.3911C45.6812 50.6027 45.9594 50.4881 46.1645 50.284C46.3696 50.0799 46.4848 49.8031 46.4849 49.5145V44.0733C46.4848 43.7847 46.3696 43.5079 46.1645 43.3039C45.9594 43.0998 45.6812 42.9851 45.3911 42.9851H39.9224C39.6323 42.9851 39.3541 43.0998 39.149 43.3039C38.9439 43.5079 38.8286 43.7847 38.8286 44.0733V49.5145C38.8286 49.8031 38.9439 50.0799 39.149 50.284C39.3541 50.4881 39.6323 50.6027 39.9224 50.6028ZM41.0161 45.1616H44.2974V48.4263H41.0161V45.1616Z" fill="#B99D75"/>
<path d="M38.8281 61.4852C38.8281 61.7738 38.9434 62.0506 39.1485 62.2547C39.3536 62.4588 39.6318 62.5734 39.9219 62.5735H45.3906C45.6807 62.5734 45.9589 62.4588 46.164 62.2547C46.3691 62.0506 46.4844 61.7738 46.4844 61.4852V56.044C46.4844 55.7554 46.3691 55.4786 46.164 55.2746C45.9589 55.0705 45.6807 54.9558 45.3906 54.9558H39.9219C39.6318 54.9558 39.3536 55.0705 39.1485 55.2746C38.9434 55.4786 38.8281 55.7554 38.8281 56.044V61.4852ZM41.0156 57.1323H44.2969V60.397H41.0156V57.1323Z" fill="#B99D75"/>
<path d="M25.7031 50.603H31.1719C31.462 50.603 31.7401 50.4883 31.9453 50.2842C32.1504 50.0802 32.2656 49.8034 32.2656 49.5148V44.0736C32.2656 43.785 32.1504 43.5082 31.9453 43.3041C31.7401 43.1 31.462 42.9854 31.1719 42.9854H25.7031C25.413 42.9854 25.1349 43.1 24.9297 43.3041C24.7246 43.5082 24.6094 43.785 24.6094 44.0736V49.5148C24.6094 49.8034 24.7246 50.0802 24.9297 50.2842C25.1349 50.4883 25.413 50.603 25.7031 50.603ZM26.7969 45.1618H30.0781V48.4265H26.7969V45.1618Z" fill="#B99D75"/>
<path d="M24.6099 61.4855C24.6099 61.7741 24.7251 62.0509 24.9302 62.2549C25.1353 62.459 25.4135 62.5737 25.7036 62.5737H31.1724C31.4624 62.5737 31.7406 62.459 31.9457 62.2549C32.1509 62.0509 32.2661 61.7741 32.2661 61.4855V56.0443C32.2661 55.7557 32.1509 55.4789 31.9457 55.2748C31.7406 55.0707 31.4624 54.9561 31.1724 54.9561H25.7036C25.4135 54.9561 25.1353 55.0707 24.9302 55.2748C24.7251 55.4789 24.6099 55.7557 24.6099 56.0443V61.4855ZM26.7974 57.1325H30.0786V60.3972H26.7974V57.1325Z" fill="#B99D75"/>
</g>
<defs>
<clipPath id="clip0_444_264">
<rect width="70" height="74" fill="white"/>
</clipPath>
</defs>
</svg>
