<svg width="33" height="38" viewBox="0 0 33 38" fill="none" xmlns="http://www.w3.org/2000/svg">
<path d="M13.9985 0.875C12.6062 0.875 11.2708 1.42812 10.2862 2.41269C9.30167 3.39726 8.74855 4.73261 8.74855 6.125V7H8.0223C7.28565 6.99922 6.57709 7.28259 6.04412 7.79112C5.51115 8.29964 5.19484 8.99413 5.16105 9.73L4.4698 24.1237C4.45208 24.5108 4.51292 24.8974 4.64864 25.2604C4.78437 25.6233 4.99217 25.9549 5.25953 26.2354C5.52689 26.5158 5.84826 26.7392 6.20428 26.8921C6.5603 27.045 6.94359 27.1242 7.33105 27.125H20.6661C21.0535 27.1242 21.4368 27.045 21.7928 26.8921C22.1488 26.7392 22.4702 26.5158 22.7376 26.2354C23.0049 25.9549 23.2127 25.6233 23.3485 25.2604C23.4842 24.8974 23.545 24.5108 23.5273 24.1237L22.8361 9.73C22.8023 8.99413 22.486 8.29964 21.953 7.79112C21.42 7.28259 20.7114 6.99922 19.9748 7H19.2486V6.125C19.2486 4.73261 18.6954 3.39726 17.7109 2.41269C16.7263 1.42812 15.3909 0.875 13.9985 0.875ZM10.4985 6.125C10.4985 5.19674 10.8673 4.3065 11.5237 3.65013C12.1801 2.99375 13.0703 2.625 13.9985 2.625C14.9268 2.625 15.817 2.99375 16.4734 3.65013C17.1298 4.3065 17.4985 5.19674 17.4985 6.125V7H10.4985V6.125ZM21.0861 9.80875L21.7773 24.2113C21.7828 24.3617 21.7586 24.5118 21.706 24.653C21.6535 24.7941 21.5736 24.9235 21.4711 25.0338C21.3663 25.1413 21.2412 25.2269 21.1029 25.2855C20.9647 25.3441 20.8162 25.3745 20.6661 25.375H7.33105C7.18092 25.3745 7.03239 25.3441 6.89417 25.2855C6.75594 25.2269 6.63079 25.1413 6.52605 25.0338C6.42348 24.9235 6.34363 24.7941 6.29109 24.653C6.23854 24.5118 6.21431 24.3617 6.2198 24.2113L6.91105 9.80875C6.92455 9.52322 7.04757 9.25388 7.25452 9.0567C7.46148 8.85952 7.73645 8.74968 8.0223 8.75H19.9748C20.2606 8.74968 20.5356 8.85952 20.7426 9.0567C20.9495 9.25388 21.0725 9.52322 21.0861 9.80875Z" fill="white"/>
<path d="M9.93848 11.5413C10.4217 11.5413 10.8135 11.1495 10.8135 10.6663C10.8135 10.183 10.4217 9.79126 9.93848 9.79126C9.45523 9.79126 9.06348 10.183 9.06348 10.6663C9.06348 11.1495 9.45523 11.5413 9.93848 11.5413Z" fill="white"/>
<path d="M18.0586 11.5413C18.5418 11.5413 18.9336 11.1495 18.9336 10.6663C18.9336 10.183 18.5418 9.79126 18.0586 9.79126C17.5753 9.79126 17.1836 10.183 17.1836 10.6663C17.1836 11.1495 17.5753 11.5413 18.0586 11.5413Z" fill="white"/>
<circle cx="22.999" cy="28" r="10" fill="#FFC960"/>
<path d="M22.801 33.168C21.9424 33.168 21.2004 32.958 20.575 32.538C19.959 32.1087 19.4877 31.516 19.161 30.76C18.8344 29.9947 18.671 29.108 18.671 28.1C18.671 27.092 18.8344 26.21 19.161 25.454C19.4877 24.6887 19.959 24.096 20.575 23.676C21.2004 23.2467 21.9424 23.032 22.801 23.032C23.6597 23.032 24.3924 23.2467 24.999 23.676C25.615 24.096 26.0864 24.6887 26.413 25.454C26.7397 26.21 26.903 27.092 26.903 28.1C26.903 29.108 26.7397 29.9947 26.413 30.76C26.0864 31.516 25.615 32.1087 24.999 32.538C24.3924 32.958 23.6597 33.168 22.801 33.168ZM22.787 32.132C23.347 32.132 23.8464 31.9733 24.285 31.656C24.7237 31.3293 25.069 30.8673 25.321 30.27C25.573 29.6633 25.699 28.94 25.699 28.1C25.699 27.26 25.573 26.5413 25.321 25.944C25.069 25.3373 24.7237 24.8753 24.285 24.558C23.8464 24.2407 23.347 24.082 22.787 24.082C22.227 24.082 21.723 24.2407 21.275 24.558C20.8364 24.8753 20.491 25.3373 20.239 25.944C19.9964 26.5413 19.875 27.26 19.875 28.1C19.875 28.94 19.9964 29.6633 20.239 30.27C20.491 30.8673 20.8364 31.3293 21.275 31.656C21.723 31.9733 22.227 32.132 22.787 32.132Z" fill="white"/>
</svg>
