<svg width="20" height="20" viewBox="0 0 20 20" fill="none" xmlns="http://www.w3.org/2000/svg">
<g clip-path="url(#clip0_1_55)">
<path d="M15.834 19.1667H4.16732C3.28326 19.1667 2.43542 18.8155 1.8103 18.1904C1.18517 17.5652 0.833984 16.7174 0.833984 15.8333V5.83333C0.833984 4.94928 1.18517 4.10143 1.8103 3.47631C2.43542 2.85119 3.28326 2.5 4.16732 2.5H15.834C16.718 2.5 17.5659 2.85119 18.191 3.47631C18.8161 4.10143 19.1673 4.94928 19.1673 5.83333V15.8333C19.1673 16.7174 18.8161 17.5652 18.191 18.1904C17.5659 18.8155 16.718 19.1667 15.834 19.1667ZM4.16732 4.16667C3.72529 4.16667 3.30137 4.34226 2.98881 4.65482C2.67625 4.96738 2.50065 5.39131 2.50065 5.83333V15.8333C2.50065 16.2754 2.67625 16.6993 2.98881 17.0118C3.30137 17.3244 3.72529 17.5 4.16732 17.5H15.834C16.276 17.5 16.6999 17.3244 17.0125 17.0118C17.3251 16.6993 17.5006 16.2754 17.5006 15.8333V5.83333C17.5006 5.39131 17.3251 4.96738 17.0125 4.65482C16.6999 4.34226 16.276 4.16667 15.834 4.16667H4.16732Z" fill="#113A75"/>
<path d="M6.66764 1.66683C6.66764 1.20659 6.29455 0.833496 5.83431 0.833496C5.37407 0.833496 5.00098 1.20659 5.00098 1.66683V5.00016C5.00098 5.4604 5.37407 5.8335 5.83431 5.8335C6.29455 5.8335 6.66764 5.4604 6.66764 5.00016V1.66683Z" fill="#113A75"/>
<path d="M15.0007 1.66683C15.0007 1.20659 14.6276 0.833496 14.1673 0.833496C13.7071 0.833496 13.334 1.20659 13.334 1.66683V5.00016C13.334 5.4604 13.7071 5.8335 14.1673 5.8335C14.6276 5.8335 15.0007 5.4604 15.0007 5.00016V1.66683Z" fill="#113A75"/>
<path d="M15.0003 7.5H5.00033C4.54009 7.5 4.16699 7.8731 4.16699 8.33333C4.16699 8.79357 4.54009 9.16667 5.00033 9.16667H15.0003C15.4606 9.16667 15.8337 8.79357 15.8337 8.33333C15.8337 7.8731 15.4606 7.5 15.0003 7.5Z" fill="#113A75"/>
</g>
<defs>
<clipPath id="clip0_1_55">
<rect width="20" height="20" fill="white" transform="translate(0.000976562)"/>
</clipPath>
</defs>
</svg>
