<svg width="21" height="22" viewBox="0 0 21 22" fill="none" xmlns="http://www.w3.org/2000/svg">
<path d="M16.3698 20.6472H4.30765C3.39363 20.6472 2.51704 20.2841 1.87073 19.6377C1.22442 18.9914 0.861328 18.1148 0.861328 17.2008V6.86185C0.861328 5.94783 1.22442 5.07124 1.87073 4.42493C2.51704 3.77862 3.39363 3.41553 4.30765 3.41553H16.3698C17.2838 3.41553 18.1604 3.77862 18.8067 4.42493C19.453 5.07124 19.8161 5.94783 19.8161 6.86185V17.2008C19.8161 18.1148 19.453 18.9914 18.8067 19.6377C18.1604 20.2841 17.2838 20.6472 16.3698 20.6472ZM4.30765 5.13869C3.85064 5.13869 3.41235 5.32024 3.08919 5.64339C2.76604 5.96655 2.58449 6.40484 2.58449 6.86185V17.2008C2.58449 17.6578 2.76604 18.0961 3.08919 18.4193C3.41235 18.7424 3.85064 18.924 4.30765 18.924H16.3698C16.8268 18.924 17.2651 18.7424 17.5882 18.4193C17.9114 18.0961 18.0929 17.6578 18.0929 17.2008V6.86185C18.0929 6.40484 17.9114 5.96655 17.5882 5.64339C17.2651 5.32024 16.8268 5.13869 16.3698 5.13869H4.30765Z" fill="#152B39"/>
<path d="M6.89308 2.55396C6.89308 2.07813 6.50734 1.69238 6.0315 1.69238C5.55566 1.69238 5.16992 2.07813 5.16992 2.55396V6.00029C5.16992 6.47613 5.55566 6.86187 6.0315 6.86187C6.50734 6.86187 6.89308 6.47613 6.89308 6.00029V2.55396Z" fill="#152B39"/>
<path d="M15.5083 2.55396C15.5083 2.07813 15.1226 1.69238 14.6467 1.69238C14.1709 1.69238 13.7852 2.07813 13.7852 2.55396V6.00029C13.7852 6.47613 14.1709 6.86187 14.6467 6.86187C15.1226 6.86187 15.5083 6.47613 15.5083 6.00029V2.55396Z" fill="#152B39"/>
<path d="M15.5082 8.58496H5.1692C4.69336 8.58496 4.30762 8.9707 4.30762 9.44654C4.30762 9.92238 4.69336 10.3081 5.1692 10.3081H15.5082C15.984 10.3081 16.3698 9.92238 16.3698 9.44654C16.3698 8.9707 15.984 8.58496 15.5082 8.58496Z" fill="#152B39"/>
</svg>
