<svg width="20" height="20" viewBox="0 0 20 20" fill="none" xmlns="http://www.w3.org/2000/svg">
<g clip-path="url(#clip0_1_45)">
<path d="M12.8141 5.43172C12.6648 5.16032 12.3773 4.99407 12.0676 5.00016C11.758 5.00626 11.4771 5.1836 11.3386 5.46067L7.88215 12.3736L6.35582 9.59844C6.20934 9.33212 5.92953 9.16669 5.62563 9.16669H4.1673C3.70707 9.16669 3.33398 9.53977 3.33398 10C3.33398 10.4602 3.70707 10.8333 4.1673 10.8333H5.13293L7.18715 14.5682C7.33645 14.8397 7.62395 15.0059 7.93367 14.9998C8.2434 14.9938 8.52418 14.8165 8.66266 14.5393L12.1191 7.62645L13.6455 10.4016C13.7919 10.6679 14.0717 10.8334 14.3756 10.8334H15.8339C16.2942 10.8334 16.6673 10.4603 16.6673 10C16.6673 9.53981 16.2942 9.16672 15.8339 9.16672H14.8684L12.8141 5.43172Z" fill="#113A75"/>
<path fill-rule="evenodd" clip-rule="evenodd" d="M0.000976562 10C0.000976562 18.235 1.76598 20 10.001 20C18.236 20 20.001 18.235 20.001 10C20.001 1.765 18.236 0 10.001 0C1.76598 0 0.000976562 1.765 0.000976562 10ZM1.66766 10C1.66766 12.0207 1.77813 13.5307 2.03242 14.6751C2.28254 15.8004 2.64906 16.4673 3.09137 16.9096C3.53367 17.3519 4.20055 17.7185 5.32594 17.9686C6.47023 18.2229 7.98027 18.3333 10.001 18.3333C12.0217 18.3333 13.5317 18.2229 14.6761 17.9686C15.8014 17.7185 16.4683 17.3519 16.9105 16.9096C17.3529 16.4673 17.7195 15.8004 17.9695 14.6751C18.2239 13.5307 18.3343 12.0207 18.3343 10C18.3343 7.9793 18.2239 6.46922 17.9695 5.32496C17.7195 4.19961 17.3529 3.53273 16.9105 3.09039C16.4683 2.64809 15.8014 2.28152 14.6761 2.03145C13.5317 1.77715 12.0217 1.66668 10.001 1.66668C7.98027 1.66668 6.4702 1.77715 5.32594 2.03145C4.20059 2.28156 3.53371 2.64809 3.09137 3.09039C2.64902 3.5327 2.2825 4.19957 2.03242 5.32496C1.77809 6.46922 1.66766 7.9793 1.66766 10Z" fill="#113A75"/>
</g>
<defs>
<clipPath id="clip0_1_45">
<rect width="20" height="20" fill="white" transform="translate(0.000976562)"/>
</clipPath>
</defs>
</svg>
