<svg width="74" height="78" viewBox="0 0 74 78" fill="none" xmlns="http://www.w3.org/2000/svg">
<g clip-path="url(#clip0_33_237)">
<path d="M73.2123 10.8132L63.8311 1.38982C63.2573 0.81342 62.328 0.81342 61.755 1.38982L55.8588 7.31295C55.5836 7.58942 55.4288 7.96488 55.4288 8.35575C55.4288 8.74662 55.5836 9.12208 55.8588 9.39855L56.5625 10.1055L39.8791 26.8651L39.8455 26.8313C39.8039 26.7895 39.7608 26.7507 39.7148 26.7147C36.7087 24.3395 32.1082 24.3292 28.2684 26.6847C26.3697 27.8492 24.8433 29.5153 23.8556 31.5027L22.8766 33.4702C21.5196 36.1982 18.7916 38.0873 15.9249 38.2816L15.7059 38.297C11.9515 38.5507 8.33213 40.2499 5.4333 43.1605C2.6155 45.9911 0.924089 49.6277 0.672239 53.3985C0.417469 57.1906 1.71176 60.8111 4.2215 63.3308L7.88683 67.0129L11.5522 70.6949C13.8538 73.0064 17.0768 74.2912 20.5078 74.2912C20.8166 74.2912 21.1276 74.2809 21.4393 74.2611C25.1944 74.0059 28.8137 72.3075 31.7118 69.3955C34.5296 66.5648 36.221 62.9289 36.4729 59.1589L36.4882 58.9359C36.6809 56.0591 38.5607 53.3186 41.2756 51.9546L43.2371 50.9712C45.2161 49.9775 46.8732 48.4449 48.0324 46.5382C50.3772 42.6809 50.3655 38.0601 48.0025 35.0403C47.9667 34.9941 47.9281 34.9501 47.8864 34.909L47.8521 34.8745L64.5356 18.1149L65.2393 18.8219C65.5262 19.1101 65.9021 19.2538 66.2773 19.2538C66.6533 19.2538 67.0285 19.1101 67.3154 18.8219L73.2116 12.8988C73.4868 12.6223 73.6416 12.2468 73.6416 11.856C73.6423 11.4651 73.4875 11.0896 73.2123 10.8132ZM58.6386 12.1918L59.511 13.0681L42.8275 29.827L41.9559 28.9507L58.6386 12.1918ZM45.5256 45.0004C44.6664 46.4135 43.3875 47.5964 41.9253 48.3312L39.9638 49.3146C36.3342 51.1377 33.8201 54.8359 33.5595 58.7357L33.5441 58.9579C33.3419 61.9727 31.9177 65.0167 29.5547 67.3905C27.2742 69.6822 24.2432 71.1129 21.2422 71.3161C18.2587 71.5075 15.565 70.5541 13.629 68.6079L9.96368 64.9265L6.29835 61.2445C4.3602 59.2975 3.40244 56.5819 3.60246 53.5973C3.80467 50.5818 5.2289 47.5377 7.59191 45.1654C9.87316 42.8737 12.9034 41.4423 15.9066 41.2391L16.1256 41.2237C20.0092 40.9612 23.6913 38.4349 25.5046 34.7887L26.4836 32.8205C27.215 31.3501 28.3918 30.0653 29.7992 29.2029C32.5243 27.5302 35.8152 27.4444 37.8358 28.9837L38.8396 29.9927L38.8403 29.9942L40.7507 31.9133L34.1457 38.5478C31.2198 36.5825 27.2172 36.8927 24.6367 39.4857C22.0554 42.0788 21.7473 46.0989 23.7037 49.0381L15.5248 57.2537C14.951 57.8301 14.951 58.7636 15.5248 59.3393C15.8117 59.6275 16.1877 59.7712 16.5629 59.7712C16.9388 59.7712 17.314 59.6275 17.6009 59.3393L25.7799 51.123C27.0413 51.97 28.5013 52.3983 29.9628 52.3983C31.8914 52.3983 33.8208 51.6605 35.2888 50.1858C37.8708 47.5927 38.1789 43.5719 36.2218 40.6334L42.8261 33.9989L44.7358 35.9173L44.738 35.9188L45.7424 36.9279C47.2754 38.9577 47.1908 42.2621 45.5256 45.0004ZM33.2134 48.1002C31.7863 49.5339 29.6547 49.8067 27.937 48.9567L34.0654 42.8004C34.9114 44.5252 34.6399 46.6673 33.2134 48.1002ZM26.7135 41.5713C27.61 40.6708 28.786 40.2213 29.9635 40.2213C30.6606 40.2213 31.3505 40.3987 31.9892 40.7148L25.8609 46.8711C25.0155 45.1463 25.2864 43.0043 26.7135 41.5713ZM45.7753 32.7882L44.9037 31.9126L61.5871 15.153L62.4587 16.0286L45.7753 32.7882ZM66.2773 15.6935L65.5736 14.9865L59.6774 9.06342L59.6752 9.06195L58.973 8.35648L62.793 4.51895L70.0974 11.856L66.2773 15.6935Z" fill="#B99D75"/>
</g>
<defs>
<clipPath id="clip0_33_237">
<rect width="73" height="77" fill="white" transform="translate(0.641602 0.95752)"/>
</clipPath>
</defs>
</svg>
