<svg width="60" height="62" viewBox="0 0 60 62" fill="none" xmlns="http://www.w3.org/2000/svg">
<g clip-path="url(#clip0_169_34)">
<path d="M53.5957 23.1542L48.4352 18.0066C49.4558 16.2264 49.4387 14.2188 49.4366 14.1232C49.4281 13.6451 49.0403 13.2585 48.5609 13.25C48.4586 13.2457 46.4643 13.2309 44.6681 14.2506L39.5033 9.10306C38.6703 8.29787 37.4259 9.5237 38.2441 10.3586L43.2661 15.3659C42.9912 15.6464 42.7419 15.9119 42.5289 16.1583C41.244 14.9899 39.2987 14.9516 37.9287 16.1052L30.84 22.073L28.1915 19.4323C27.4905 18.6186 20.3103 13.3775 19.3366 12.5894C18.6335 12.0583 17.6278 12.1263 17.0014 12.7488L13.9758 15.7655C13.3835 16.3561 13.2855 17.293 13.7436 17.9941C14.9091 19.6235 19.0511 26.481 20.4467 27.7177L23.338 30.6006C22.0511 32.5445 20.5596 34.7922 19.017 37.1101L11.6408 33.0035C11.2956 32.8123 10.8588 32.8697 10.5776 33.1501L6.3972 37.3183C6.04989 37.6646 6.04989 38.2276 6.3972 38.5739L13.409 45.5652L12.6036 46.7889C12.5887 46.8122 12.5866 46.8377 12.5738 46.8611C12.3863 47.1989 12.4694 47.6174 12.7186 47.9L14.6917 49.8672C14.9559 50.1264 15.3777 50.2135 15.708 50.0287C16.0979 49.8269 16.6562 49.3999 17.0248 49.1725L24.0388 56.166C24.3861 56.5123 24.9507 56.5123 25.298 56.166L29.4784 51.9978C29.7597 51.7174 29.8194 51.2861 29.6276 50.9377L25.5005 43.551C27.8187 42.0214 30.0708 40.5343 32.0159 39.2554C33.2347 40.4154 35.4719 42.9095 36.9101 43.7678L44.6807 48.8431C44.9768 49.0364 45.3156 49.1299 45.6522 49.1299C46.1146 49.1299 46.5727 48.9535 46.9157 48.6115L49.9413 45.5948C50.5677 44.9723 50.6359 43.9695 50.1011 43.2664L44.3569 35.716C43.6964 34.7876 41.4102 32.6462 40.5899 31.7964L46.5752 24.7262C47.73 23.3623 47.6917 21.4206 46.5219 20.1395C46.7691 19.9271 47.0333 19.6785 47.3166 19.4044L52.3386 24.4117C53.1611 25.2254 54.4203 23.9932 53.5979 23.1562L53.5957 23.1542ZM46.609 17.5584C46.2233 18.03 45.6523 18.5378 45.2688 18.8692L43.8029 17.4076C44.1182 17.0443 44.6381 16.4622 45.0898 16.0925C45.876 15.4892 46.8562 15.2279 47.57 15.1153C47.457 15.8227 47.2013 16.7914 46.609 17.5584ZM39.1068 30.3157L36.3454 27.5624L39.0833 24.8325C39.8312 26.2155 39.844 28.3421 39.1068 30.3157ZM35.0862 26.3069L32.3312 23.5599C34.3532 22.793 36.4583 22.8036 37.837 23.5684L35.0884 26.3069L35.0862 26.3069ZM16.9329 19.6065L23.9938 18.3425L24.7396 18.9076L17.299 20.1674L16.9325 19.6087L16.9329 19.6065ZM18.2603 14.0042L22.0657 16.8829L15.8721 17.9918L15.235 17.0209L18.2603 14.0042ZM11.3631 34.8814L18.034 38.5949L14.4118 44.0525L8.288 37.9466L11.3647 34.8789L11.3631 34.8814ZM24.6711 54.2841L18.5412 48.1722C20.2863 47.0186 22.1485 45.7822 24.0171 44.5394L27.7479 51.2185L24.6712 54.2862L24.6711 54.2841ZM23.97 42.4361C21.4153 44.1335 18.7669 45.8926 16.3828 47.4689L19.8238 44.0379C20.1711 43.6916 20.1711 43.1287 19.8238 42.7824C19.4765 42.4361 18.9119 42.4361 18.5646 42.7824L15.1214 46.2155C17.7677 42.2258 22.1316 35.638 24.6265 31.8837L30.7329 37.9744C28.7002 39.3128 26.3604 40.8555 23.97 42.4361ZM43.698 37.7857L44.2648 38.5292L42.9886 45.6119L42.4304 45.2465L43.7002 37.7831L43.698 37.7857ZM45.6583 47.3587L44.6057 46.6725L45.7265 40.454L48.6839 44.3417L45.6583 47.3587ZM41.9829 35.6978C42.0617 35.7764 42.1256 35.8678 42.2023 35.9485L40.8003 44.1869C39.5794 43.3265 37.1803 41.9902 36.1874 40.9046L21.7051 26.4645C20.6099 25.4767 19.2143 22.9974 18.3642 21.7886L26.5929 20.3971C26.6973 20.4077 29.8251 23.6007 29.9892 23.741C32.4565 26.2181 39.6072 33.3221 41.9827 35.6993L41.9829 35.6978ZM45.2151 23.5844L41.4097 28.0797C41.8358 23.7437 38.9445 20.8078 34.5724 21.2603L39.0788 17.466C39.7798 16.8754 40.777 16.9009 41.397 17.5212L45.1597 21.273C45.7819 21.8933 45.8053 22.8876 45.2173 23.5844L45.2151 23.5844Z" fill="#B99D75"/>
</g>
<defs>
<clipPath id="clip0_169_34">
<rect width="60" height="62" fill="white"/>
</clipPath>
</defs>
</svg>
