<svg width="59" height="63" viewBox="0 0 59 63" fill="none" xmlns="http://www.w3.org/2000/svg">
<g clip-path="url(#clip0_158_143)">
<path d="M57.3379 25.9606H51.3407L50.0109 22.2813C50.2169 22.2293 50.398 22.1058 50.5221 21.9324C50.6463 21.7591 50.7055 21.5471 50.6892 21.3341C50.6866 21.298 50.4552 17.7057 52.5938 15.1507C52.6707 15.0591 52.7289 14.9532 52.7651 14.839C52.8013 14.7247 52.8147 14.6044 52.8046 14.485C52.7945 14.3655 52.7611 14.2492 52.7063 14.1427C52.6515 14.0363 52.5764 13.9417 52.4852 13.8645C52.394 13.7873 52.2886 13.7289 52.175 13.6928C52.0614 13.6566 51.9418 13.6433 51.823 13.6537C51.7043 13.6641 51.5888 13.6979 51.4831 13.7533C51.3774 13.8086 51.2835 13.8844 51.207 13.9763C49.3179 16.2334 48.937 19.0324 48.8763 20.49H45.2544C45.0214 20.4893 44.7972 20.5793 44.6285 20.741C44.4598 20.9026 44.3597 21.1236 44.3491 21.3578C44.3384 21.592 44.4181 21.8212 44.5714 21.9977C44.7247 22.1742 44.9398 22.2844 45.1719 22.3051L43.8507 25.9606H40.1191V18.6664H43.7441C43.9845 18.6664 44.215 18.5704 44.385 18.3994C44.5549 18.2284 44.6504 17.9965 44.6504 17.7547C44.6504 17.5129 44.5549 17.281 44.385 17.11C44.215 16.939 43.9845 16.8429 43.7441 16.8429H40.3636L42.2574 9.12247C42.7641 9.37053 43.1969 9.74852 43.5123 10.2184C43.521 10.2316 43.533 10.2407 43.5422 10.2533C43.5707 10.2924 43.6023 10.3292 43.6366 10.3633C43.6533 10.3797 43.6695 10.3959 43.6872 10.4108C43.7274 10.4444 43.7704 10.4745 43.8157 10.5006C43.8291 10.5083 43.8412 10.518 43.8549 10.525C43.9149 10.5559 43.9781 10.58 44.0434 10.5969L44.0503 10.5994C44.0595 10.6017 44.0692 10.601 44.0785 10.603L44.0794 10.6031C44.1317 10.6146 44.1849 10.6214 44.2383 10.6234C44.2505 10.6239 44.2626 10.628 44.2747 10.628C44.2916 10.628 44.3077 10.6223 44.3245 10.6214C44.3986 10.6151 44.472 10.6021 44.5438 10.5826C44.5561 10.5786 44.5679 10.5722 44.58 10.5676C44.637 10.5485 44.692 10.5238 44.7441 10.4937C45.306 10.1592 45.9709 10.0454 46.6112 10.1742C47.2514 10.3031 47.8217 10.6654 48.2125 11.1916C48.22 11.2029 48.2304 11.2107 48.2382 11.2215C48.2685 11.2635 48.3022 11.3029 48.3392 11.3391C48.3557 11.3553 48.3722 11.3708 48.3898 11.3855C48.4273 11.4166 48.4673 11.4445 48.5093 11.469C48.5266 11.4792 48.5426 11.491 48.5604 11.5C48.6208 11.5312 48.6844 11.5554 48.7502 11.5722C48.8215 11.5899 48.8949 11.5989 48.9684 11.599C49.0474 11.598 49.1259 11.5865 49.2019 11.5648C49.2139 11.5616 49.2257 11.5594 49.2376 11.5556C49.3122 11.5317 49.3833 11.4982 49.4493 11.4559C49.4556 11.452 49.4627 11.4508 49.4688 11.4467C49.4765 11.4416 49.4823 11.4347 49.4898 11.4294C49.5221 11.4062 49.5528 11.3809 49.5817 11.3536C49.5942 11.342 49.6076 11.3313 49.6193 11.319C49.6568 11.2804 49.6907 11.2385 49.7208 11.1937L49.7235 11.1903C49.7536 11.1439 49.7795 11.0948 49.8007 11.0437C49.8083 11.0256 49.8129 11.0067 49.8194 10.9882C49.8289 10.9609 49.8402 10.9345 49.8472 10.9058C49.8494 10.8968 49.8502 10.8877 49.8524 10.8787L49.8572 10.8541C50.1126 9.79383 50.1557 8.69303 49.9841 7.6158C49.8125 6.53857 49.4296 5.50645 48.8577 4.57954C47.6713 2.64842 45.7791 1.26274 43.5879 0.720368C43.5466 0.705292 43.5042 0.693305 43.4612 0.684504C43.435 0.67819 43.4102 0.668753 43.3839 0.662662L43.3698 0.660128C43.356 0.657151 43.3423 0.654994 43.3284 0.652669C38.6917 -0.389067 34.0334 2.40886 32.9061 6.91855C32.9043 6.92508 32.902 6.93143 32.9003 6.93802C32.899 6.94322 32.897 6.94809 32.8957 6.9533C32.8906 6.97397 32.8905 6.99448 32.8869 7.01515C32.8799 7.04985 32.875 7.08492 32.872 7.12019C32.8704 7.1481 32.8728 7.17536 32.8737 7.20295C32.8739 7.23457 32.8758 7.26617 32.8793 7.2976C32.8833 7.32678 32.8911 7.35462 32.8979 7.383C32.904 7.41243 32.9115 7.44154 32.9205 7.4702C32.9321 7.50098 32.9454 7.53111 32.9602 7.56044C32.97 7.58114 32.9763 7.60265 32.9877 7.62289C32.9898 7.62657 32.9927 7.62935 32.9948 7.63297C33.013 7.66204 33.0328 7.69005 33.0541 7.71688C33.0696 7.73759 33.0832 7.76007 33.1001 7.77913C33.1184 7.79983 33.1403 7.81708 33.1606 7.83609C33.1825 7.85836 33.2055 7.87949 33.2295 7.89939C33.2467 7.91247 33.2666 7.92209 33.2848 7.93398C33.3154 7.95524 33.3473 7.9746 33.3803 7.99194C33.3966 7.9999 33.4148 8.0046 33.4317 8.01161C33.4699 8.02835 33.5091 8.04244 33.5492 8.05376L33.5581 8.05695C33.5762 8.06149 33.5941 8.06141 33.6122 8.06477C33.6492 8.07255 33.6866 8.07798 33.7243 8.08102C33.7521 8.08266 33.7791 8.08027 33.8066 8.07932C33.8681 8.08069 33.9295 8.0722 33.9884 8.05419C34.016 8.04743 34.0436 8.04209 34.0709 8.03257C34.1038 8.02014 34.1359 8.00579 34.1671 7.98958C34.1858 7.98051 34.2053 7.97484 34.2236 7.96435C34.8214 7.648 35.5148 7.56719 36.1686 7.73768C36.8224 7.90817 37.3895 8.31772 37.7593 8.88635C37.7613 8.88938 37.7641 8.89136 37.7661 8.89439C37.7786 8.91287 37.7932 8.92937 37.8069 8.94682C37.8245 8.96916 37.8423 8.99081 37.8616 9.01112C37.8742 9.02436 37.8862 9.0378 37.8995 9.05024C37.9106 9.06056 37.9223 9.0693 37.9338 9.07901C37.9531 9.09532 37.9725 9.11099 37.9929 9.12551C38.016 9.14199 38.0402 9.15632 38.0647 9.17059C38.0776 9.178 38.0893 9.18712 38.1024 9.19388C38.1151 9.20039 38.1282 9.20538 38.1412 9.21128C38.1686 9.22338 38.1967 9.2341 38.2252 9.24338C38.2466 9.25065 38.2673 9.25934 38.2891 9.265C38.2972 9.26709 38.3054 9.26848 38.3135 9.27037C38.3387 9.27616 38.3646 9.27911 38.3905 9.28273C38.4209 9.28734 38.4516 9.29038 38.4823 9.29184C38.4933 9.29223 38.5036 9.29503 38.5146 9.29503L38.5158 9.29501C38.5246 9.29501 38.5337 9.29501 38.5425 9.29459C38.5549 9.29423 38.5663 9.29069 38.5786 9.28983C38.6114 9.28732 38.644 9.283 38.6763 9.27689C38.7025 9.27213 38.7283 9.2674 38.7536 9.26048C38.7628 9.25795 38.7718 9.25647 38.781 9.25364C38.8015 9.24726 38.8213 9.23798 38.8415 9.23004C38.8718 9.21847 38.9014 9.20525 38.9302 9.19045C38.9414 9.18463 38.9532 9.18157 38.9642 9.17526C39.4294 8.91165 39.9503 8.76344 40.4839 8.74294L38.497 16.8429H34.6816C34.4413 16.8429 34.2108 16.939 34.0408 17.11C33.8709 17.281 33.7754 17.5129 33.7754 17.7547C33.7754 17.9965 33.8709 18.2284 34.0408 18.3994C34.2108 18.5704 34.4413 18.6664 34.6816 18.6664H38.3066V25.9606H34.5751L33.2539 22.3051C33.4859 22.2844 33.7011 22.1742 33.8544 21.9977C34.0077 21.8212 34.0874 21.592 34.0767 21.3578C34.0661 21.1236 33.966 20.9027 33.7973 20.741C33.6286 20.5793 33.4044 20.4893 33.1714 20.49H29.5495C29.4888 19.0324 29.1078 16.2334 27.2188 13.9763C27.0638 13.7918 26.8425 13.6767 26.6033 13.6563C26.364 13.6358 26.1265 13.7117 25.9429 13.8673C25.7592 14.0228 25.6444 14.2453 25.6236 14.4859C25.6028 14.7265 25.6778 14.9656 25.832 15.1507C27.9706 17.7057 27.7392 21.298 27.7365 21.3318C27.7192 21.5454 27.7779 21.7581 27.9022 21.9321C28.0264 22.1061 28.2082 22.2299 28.4148 22.2814L27.0851 25.9606H1.15039C0.910042 25.9606 0.679541 26.0566 0.509588 26.2276C0.339636 26.3986 0.244153 26.6305 0.244141 26.8723L0.244141 31.4311C0.244153 31.673 0.339636 31.9049 0.509588 32.0759C0.679541 32.2468 0.910042 32.3429 1.15039 32.3429H2.96289V57.8723C2.96289 58.1141 3.05837 58.346 3.22832 58.517C3.39828 58.688 3.62879 58.7841 3.86914 58.7841C4.10949 58.7841 4.34 58.688 4.50996 58.517C4.67991 58.346 4.77539 58.1141 4.77539 57.8723V32.3429H54.6191V57.8723C54.6191 58.1141 54.7146 58.346 54.8846 58.517C55.0545 58.688 55.285 58.7841 55.5254 58.7841C55.7657 58.7841 55.9962 58.688 56.1662 58.517C56.3362 58.346 56.4316 58.1141 56.4316 57.8723V32.3429H57.3379C57.5782 32.3429 57.8087 32.2468 57.9787 32.0759C58.1486 31.9049 58.2441 31.673 58.2441 31.4311V26.8723C58.2441 26.6305 58.1486 26.3986 57.9787 26.2276C57.8087 26.0566 57.5782 25.9606 57.3379 25.9606ZM47.3138 5.5349C47.9275 6.53526 48.2573 7.68552 48.2675 8.86102C47.4944 8.44647 46.6195 8.26338 45.7463 8.3334C46.0838 6.77326 46.0191 5.15218 45.5582 3.62432C46.2608 4.1408 46.8571 4.78967 47.3138 5.5349ZM35.2664 5.8319C35.7753 4.91339 36.4847 4.12301 37.3412 3.52029C38.1977 2.91757 39.1789 2.51823 40.211 2.35232C39.0835 3.51332 38.2682 4.94381 37.8416 6.50921C37.0672 6.03578 36.1721 5.80036 35.2664 5.8319ZM39.5778 7.02386C40.0668 5.04162 41.6236 3.10757 42.999 2.55959C43.9689 3.65361 44.4521 6.07028 43.9536 8.05166C43.3409 7.57329 42.6327 7.23379 41.8774 7.0564C41.1222 6.879 40.3378 6.8679 39.5778 7.02386ZM47.0978 22.3135H48.0936L49.4118 25.9606H45.7796L47.0978 22.3135ZM30.3322 22.3135H31.328L32.6461 25.9606H29.014L30.3322 22.3135ZM56.4316 30.5194H2.05664V27.7841H56.4316V30.5194Z" fill="#B99D75"/>
<path d="M9.75977 42.8272H14.291C14.5314 42.8272 14.7619 42.7311 14.9318 42.5601C15.1018 42.3891 15.1973 42.1572 15.1973 41.9154V37.3566C15.1973 37.1148 15.1018 36.8829 14.9318 36.7119C14.7619 36.5409 14.5314 36.4448 14.291 36.4448H9.75977C9.51942 36.4448 9.28892 36.5409 9.11896 36.7119C8.94901 36.8829 8.85353 37.1148 8.85352 37.3566V41.9154C8.85353 42.1572 8.94901 42.3891 9.11896 42.5601C9.28892 42.7311 9.51942 42.8272 9.75977 42.8272ZM10.666 38.2684H13.3848V41.0036H10.666V38.2684Z" fill="#B99D75"/>
<path d="M8.85352 51.9452C8.85353 52.187 8.94901 52.4189 9.11896 52.5899C9.28892 52.7609 9.51942 52.857 9.75977 52.857H14.291C14.5314 52.857 14.7619 52.7609 14.9318 52.5899C15.1018 52.4189 15.1973 52.187 15.1973 51.9452V47.3864C15.1973 47.1446 15.1018 46.9127 14.9318 46.7417C14.7619 46.5707 14.5314 46.4746 14.291 46.4746H9.75977C9.51942 46.4746 9.28892 46.5707 9.11896 46.7417C8.94901 46.9127 8.85353 47.1446 8.85352 47.3864V51.9452ZM10.666 48.2981H13.3848V51.0334H10.666V48.2981Z" fill="#B99D75"/>
<path d="M45.1035 42.8272H49.6348C49.8751 42.8272 50.1056 42.7311 50.2756 42.5601C50.4455 42.3891 50.541 42.1572 50.541 41.9154V37.3566C50.541 37.1148 50.4455 36.8829 50.2756 36.7119C50.1056 36.5409 49.8751 36.4448 49.6348 36.4448H45.1035C44.8632 36.4448 44.6327 36.5409 44.4627 36.7119C44.2928 36.8829 44.1973 37.1148 44.1973 37.3566V41.9154C44.1973 42.1572 44.2928 42.3891 44.4627 42.5601C44.6327 42.7311 44.8632 42.8272 45.1035 42.8272ZM46.0098 38.2684H48.7285V41.0036H46.0098V38.2684Z" fill="#B99D75"/>
<path d="M44.1973 51.9447C44.1973 52.1865 44.2928 52.4184 44.4627 52.5894C44.6327 52.7604 44.8632 52.8565 45.1035 52.8565H49.6348C49.8751 52.8565 50.1056 52.7604 50.2756 52.5894C50.4455 52.4184 50.541 52.1865 50.541 51.9447V47.3859C50.541 47.1441 50.4455 46.9122 50.2756 46.7412C50.1056 46.5702 49.8751 46.4741 49.6348 46.4741H45.1035C44.8632 46.4741 44.6327 46.5702 44.4627 46.7412C44.2928 46.9122 44.1973 47.1441 44.1973 47.3859V51.9447ZM46.0098 48.2977H48.7285V51.0329H46.0098V48.2977Z" fill="#B99D75"/>
<path d="M33.3223 42.8272H37.8535C38.0939 42.8272 38.3244 42.7311 38.4943 42.5601C38.6643 42.3891 38.7598 42.1572 38.7598 41.9154V37.3566C38.7598 37.1148 38.6643 36.8829 38.4943 36.7119C38.3244 36.5409 38.0939 36.4448 37.8535 36.4448H33.3223C33.0819 36.4448 32.8514 36.5409 32.6815 36.7119C32.5115 36.8829 32.416 37.1148 32.416 37.3566V41.9154C32.416 42.1572 32.5115 42.3891 32.6815 42.5601C32.8514 42.7311 33.0819 42.8272 33.3223 42.8272ZM34.2285 38.2684H36.9473V41.0036H34.2285V38.2684Z" fill="#B99D75"/>
<path d="M32.416 51.9447C32.416 52.1865 32.5115 52.4184 32.6815 52.5894C32.8514 52.7604 33.0819 52.8565 33.3223 52.8565H37.8535C38.0939 52.8565 38.3244 52.7604 38.4943 52.5894C38.6643 52.4184 38.7598 52.1865 38.7598 51.9447V47.3859C38.7598 47.1441 38.6643 46.9122 38.4943 46.7412C38.3244 46.5702 38.0939 46.4741 37.8535 46.4741H33.3223C33.0819 46.4741 32.8514 46.5702 32.6815 46.7412C32.5115 46.9122 32.416 47.1441 32.416 47.3859V51.9447ZM34.2285 48.2977H36.9473V51.0329H34.2285V48.2977Z" fill="#B99D75"/>
<path d="M21.541 42.8272H26.0723C26.3126 42.8272 26.5431 42.7311 26.7131 42.5601C26.883 42.3891 26.9785 42.1572 26.9785 41.9154V37.3566C26.9785 37.1148 26.883 36.8829 26.7131 36.7119C26.5431 36.5409 26.3126 36.4448 26.0723 36.4448H21.541C21.3007 36.4448 21.0702 36.5409 20.9002 36.7119C20.7303 36.8829 20.6348 37.1148 20.6348 37.3566V41.9154C20.6348 42.1572 20.7303 42.3891 20.9002 42.5601C21.0702 42.7311 21.3007 42.8272 21.541 42.8272ZM22.4473 38.2684H25.166V41.0036H22.4473V38.2684Z" fill="#B99D75"/>
<path d="M20.6357 51.9452C20.6358 52.187 20.7312 52.4189 20.9012 52.5899C21.0711 52.7609 21.3016 52.857 21.542 52.857H26.0732C26.3136 52.857 26.5441 52.7609 26.714 52.5899C26.884 52.4189 26.9795 52.187 26.9795 51.9452V47.3864C26.9795 47.1446 26.884 46.9127 26.714 46.7417C26.5441 46.5707 26.3136 46.4746 26.0732 46.4746H21.542C21.3016 46.4746 21.0711 46.5707 20.9012 46.7417C20.7312 46.9127 20.6358 47.1446 20.6357 47.3864V51.9452ZM22.4482 48.2981H25.167V51.0334H22.4482V48.2981Z" fill="#B99D75"/>
</g>
<defs>
<clipPath id="clip0_158_143">
<rect width="58" height="62" fill="white" transform="translate(0.244141 0.430176)"/>
</clipPath>
</defs>
</svg>
