<svg width="65" height="65" viewBox="0 0 65 65" fill="none" xmlns="http://www.w3.org/2000/svg">
<g clip-path="url(#clip0_166_13)">
<path d="M23.2146 7.5421C23.1534 7.42582 23.1158 7.29863 23.1038 7.16779C23.0917 7.03695 23.1056 6.90503 23.1446 6.77956C23.1837 6.6541 23.247 6.53755 23.3311 6.43657C23.4151 6.3356 23.5183 6.25219 23.6346 6.1911C26.4956 4.69531 29.6762 3.91406 32.9046 3.91406C36.1331 3.91406 39.3136 4.69531 42.1746 6.1911C42.4096 6.31442 42.586 6.52604 42.6649 6.7794C42.7439 7.03277 42.7189 7.30711 42.5956 7.5421C42.4723 7.77708 42.2607 7.95344 42.0073 8.0324C41.7539 8.11135 41.4796 8.08642 41.2446 7.9631C38.6706 6.61731 35.8092 5.91441 32.9046 5.91441C30 5.91441 27.1386 6.61731 24.5646 7.9631C24.3298 8.08627 24.0556 8.11112 23.8024 8.03216C23.5493 7.95321 23.3378 7.77693 23.2146 7.5421ZM38.3756 11.7801C38.6069 11.7804 38.8311 11.7005 39.0101 11.554C39.189 11.4076 39.3117 11.2036 39.3573 10.9769C39.4028 10.7502 39.3683 10.5147 39.2597 10.3105C39.1511 10.1063 38.9751 9.94609 38.7616 9.8571C35.0096 8.3131 30.7996 8.3131 27.0476 9.8571C26.9264 9.90772 26.8163 9.98172 26.7237 10.0749C26.6311 10.168 26.5578 10.2785 26.5079 10.4C26.4579 10.5215 26.4325 10.6517 26.4328 10.783C26.4332 10.9144 26.4595 11.0444 26.5101 11.1656C26.5607 11.2868 26.6347 11.3969 26.7279 11.4895C26.821 11.5821 26.9315 11.6554 27.053 11.7053C27.1745 11.7553 27.3047 11.7807 27.436 11.7804C27.5674 11.78 27.6974 11.7537 27.8186 11.7031C31.0769 10.3631 34.7323 10.3631 37.9906 11.7031C38.1125 11.7542 38.2434 11.7804 38.3756 11.7801ZM30.7236 13.7111C30.4649 13.7698 30.2401 13.929 30.0987 14.1534C29.9573 14.3779 29.9109 14.6494 29.9696 14.9081C30.0284 15.1668 30.1875 15.3916 30.412 15.533C30.6364 15.6744 30.9079 15.7208 31.1666 15.6621C32.3114 15.4081 33.4979 15.4081 34.6426 15.6621C34.9013 15.7208 35.1728 15.6744 35.3973 15.533C35.6217 15.3916 35.7809 15.1668 35.8396 14.9081C35.8984 14.6494 35.8519 14.3779 35.7105 14.1534C35.5691 13.929 35.3443 13.7698 35.0856 13.7111C33.6488 13.3951 32.1604 13.3951 30.7236 13.7111ZM46.5846 31.3111V60.6111C46.5846 60.8763 46.4793 61.1307 46.2917 61.3182C46.1042 61.5057 45.8498 61.6111 45.5846 61.6111H20.2246C19.9594 61.6111 19.705 61.5057 19.5175 61.3182C19.33 61.1307 19.2246 60.8763 19.2246 60.6111V31.3111C19.2283 27.997 20.5465 24.8198 22.8899 22.4764C25.2333 20.133 28.4105 18.8148 31.7246 18.8111H34.0846C37.3987 18.8148 40.5759 20.133 42.9194 22.4764C45.2628 24.8198 46.5809 27.997 46.5846 31.3111ZM44.5846 31.3111C44.5814 28.5273 43.4742 25.8584 41.5057 23.89C39.5373 21.9215 36.8684 20.8143 34.0846 20.8111H31.7246C28.9408 20.8143 26.2719 21.9215 24.3035 23.89C22.3351 25.8584 21.2278 28.5273 21.2246 31.3111V59.6111H44.5846V31.3111ZM37.2126 29.7331C37.2134 30.5853 36.9614 31.4186 36.4885 32.1276C36.0156 32.8366 35.3431 33.3893 34.556 33.716C33.7689 34.0427 32.9025 34.1286 32.0666 33.9628C31.2307 33.797 30.4627 33.3871 29.8598 32.7847C29.2569 32.1824 28.8462 31.4148 28.6797 30.579C28.5131 29.7432 28.5982 28.8768 28.9242 28.0894C29.2501 27.302 29.8023 26.6289 30.5108 26.1554C31.2193 25.6819 32.0524 25.4291 32.9046 25.4291C34.0466 25.4304 35.1414 25.8846 35.949 26.692C36.7566 27.4994 37.211 28.5941 37.2126 29.7361V29.7331ZM35.2126 29.7331C35.212 29.2767 35.0762 28.8308 34.8222 28.4517C34.5682 28.0725 34.2075 27.7771 33.7858 27.6029C33.364 27.4287 32.9 27.3834 32.4525 27.4728C32.005 27.5622 31.594 27.7823 31.2715 28.1052C30.9491 28.4281 30.7296 28.8393 30.6407 29.2869C30.5519 29.7346 30.5978 30.1985 30.7726 30.62C30.9474 31.0416 31.2432 31.4019 31.6227 31.6553C32.0021 31.9088 32.4483 32.0441 32.9046 32.0441C33.5165 32.0433 34.1031 31.7999 34.5357 31.3672C34.9684 30.9346 35.2118 30.348 35.2126 29.7361V29.7331ZM28.4946 37.5571H25.1866C24.9214 37.5571 24.667 37.6625 24.4795 37.85C24.292 38.0375 24.1866 38.2919 24.1866 38.5571C24.1866 38.8223 24.292 39.0767 24.4795 39.2642C24.667 39.4517 24.9214 39.5571 25.1866 39.5571H28.4946C28.7598 39.5571 29.0142 39.4517 29.2017 39.2642C29.3893 39.0767 29.4946 38.8223 29.4946 38.5571C29.4946 38.2919 29.3893 38.0375 29.2017 37.85C29.0142 37.6625 28.7598 37.5571 28.4946 37.5571ZM28.4946 43.0701H25.1866C24.9214 43.0701 24.667 43.1755 24.4795 43.363C24.292 43.5505 24.1866 43.8049 24.1866 44.0701C24.1866 44.3353 24.292 44.5897 24.4795 44.7772C24.667 44.9647 24.9214 45.0701 25.1866 45.0701H28.4946C28.7598 45.0701 29.0142 44.9647 29.2017 44.7772C29.3893 44.5897 29.4946 44.3353 29.4946 44.0701C29.4946 43.8049 29.3893 43.5505 29.2017 43.363C29.0142 43.1755 28.7598 43.0701 28.4946 43.0701ZM28.4946 48.5831H25.1866C24.9214 48.5831 24.667 48.6885 24.4795 48.876C24.292 49.0635 24.1866 49.3179 24.1866 49.5831C24.1866 49.8483 24.292 50.1027 24.4795 50.2902C24.667 50.4777 24.9214 50.5831 25.1866 50.5831H28.4946C28.7598 50.5831 29.0142 50.4777 29.2017 50.2902C29.3893 50.1027 29.4946 49.8483 29.4946 49.5831C29.4946 49.3179 29.3893 49.0635 29.2017 48.876C29.0142 48.6885 28.7598 48.5831 28.4946 48.5831ZM28.4946 54.0961H25.1866C24.9214 54.0961 24.667 54.2015 24.4795 54.389C24.292 54.5765 24.1866 54.8309 24.1866 55.0961C24.1866 55.3613 24.292 55.6157 24.4795 55.8032C24.667 55.9907 24.9214 56.0961 25.1866 56.0961H28.4946C28.7598 56.0961 29.0142 55.9907 29.2017 55.8032C29.3893 55.6157 29.4946 55.3613 29.4946 55.0961C29.4946 54.8309 29.3893 54.5765 29.2017 54.389C29.0142 54.2015 28.7598 54.0961 28.4946 54.0961ZM40.6226 37.5571H37.3146C37.0494 37.5571 36.795 37.6625 36.6075 37.85C36.42 38.0375 36.3146 38.2919 36.3146 38.5571C36.3146 38.8223 36.42 39.0767 36.6075 39.2642C36.795 39.4517 37.0494 39.5571 37.3146 39.5571H40.6226C40.8878 39.5571 41.1422 39.4517 41.3297 39.2642C41.5173 39.0767 41.6226 38.8223 41.6226 38.5571C41.6226 38.2919 41.5173 38.0375 41.3297 37.85C41.1422 37.6625 40.8878 37.5571 40.6226 37.5571ZM40.6226 43.0701H37.3146C37.0494 43.0701 36.795 43.1755 36.6075 43.363C36.42 43.5505 36.3146 43.8049 36.3146 44.0701C36.3146 44.3353 36.42 44.5897 36.6075 44.7772C36.795 44.9647 37.0494 45.0701 37.3146 45.0701H40.6226C40.8878 45.0701 41.1422 44.9647 41.3297 44.7772C41.5173 44.5897 41.6226 44.3353 41.6226 44.0701C41.6226 43.8049 41.5173 43.5505 41.3297 43.363C41.1422 43.1755 40.8878 43.0701 40.6226 43.0701ZM40.6226 48.5831H37.3146C37.0494 48.5831 36.795 48.6885 36.6075 48.876C36.42 49.0635 36.3146 49.3179 36.3146 49.5831C36.3146 49.8483 36.42 50.1027 36.6075 50.2902C36.795 50.4777 37.0494 50.5831 37.3146 50.5831H40.6226C40.8878 50.5831 41.1422 50.4777 41.3297 50.2902C41.5173 50.1027 41.6226 49.8483 41.6226 49.5831C41.6226 49.3179 41.5173 49.0635 41.3297 48.876C41.1422 48.6885 40.8878 48.5831 40.6226 48.5831ZM40.6226 54.0961H37.3146C37.0494 54.0961 36.795 54.2015 36.6075 54.389C36.42 54.5765 36.3146 54.8309 36.3146 55.0961C36.3146 55.3613 36.42 55.6157 36.6075 55.8032C36.795 55.9907 37.0494 56.0961 37.3146 56.0961H40.6226C40.8878 56.0961 41.1422 55.9907 41.3297 55.8032C41.5173 55.6157 41.6226 55.3613 41.6226 55.0961C41.6226 54.8309 41.5173 54.5765 41.3297 54.389C41.1422 54.2015 40.8878 54.0961 40.6226 54.0961Z" fill="#B99D75"/>
</g>
<defs>
<clipPath id="clip0_166_13">
<rect width="64" height="64" fill="white" transform="translate(0.904297 0.710938)"/>
</clipPath>
</defs>
</svg>
