<svg width="104" height="101" viewBox="0 0 104 101" fill="none" xmlns="http://www.w3.org/2000/svg">
<g clip-path="url(#clip0_33_217)">
<path d="M81.8019 76.3724L78.0348 69.8608L70.6041 23.8294C70.6041 23.8257 70.6004 23.822 70.6004 23.822C70.593 23.774 70.5783 23.7261 70.5635 23.6782C70.5561 23.6561 70.5524 23.6339 70.545 23.6155C70.5339 23.5823 70.5118 23.5491 70.497 23.5196C70.4822 23.4901 70.4675 23.457 70.449 23.4275C70.4379 23.409 70.4195 23.3906 70.4084 23.3721C70.3788 23.3316 70.353 23.2947 70.3197 23.2578C70.316 23.2542 70.316 23.2542 70.3124 23.2505C67.8195 20.6916 63.9158 20.1495 60.8172 21.9379C58.4683 23.2911 57.0501 25.7172 56.9245 28.3093C54.5202 27.1737 51.5436 27.2807 49.0174 28.7371C46.4691 30.2083 44.8847 32.7598 44.689 35.4293C42.2737 34.2641 39.2674 34.3563 36.7191 35.8238C34.193 37.2803 32.6123 39.7986 32.3944 42.446C30.0825 41.2588 27.2719 41.2698 24.9232 42.623C21.8246 44.4076 20.3436 48.0543 21.3149 51.4907C21.3149 51.4944 21.3186 51.4981 21.3186 51.5018C21.326 51.5202 21.3334 51.5387 21.3408 51.5608C21.3555 51.605 21.3703 51.6456 21.3925 51.6861C21.4036 51.7083 21.4146 51.7267 21.4257 51.7451C21.4479 51.782 21.47 51.8189 21.4996 51.8521C21.5144 51.8705 21.5291 51.8853 21.5439 51.9037C21.5771 51.9406 21.6104 51.9737 21.6473 52.0069C21.6584 52.0143 21.6658 52.0254 21.6732 52.0327L57.8888 81.4719L61.6559 87.9835C62.8266 90.0114 64.7286 91.4605 67.0036 92.0689C67.768 92.2717 68.5399 92.3749 69.3118 92.3749C70.8334 92.3749 72.3365 91.9767 73.6845 91.1987L78.578 88.3779C80.6055 87.2091 82.0607 85.3102 82.67 83.0389C83.2794 80.7639 82.9729 78.3967 81.7984 76.3724L81.8019 76.3724ZM53.6822 75.281L57.4566 73.1056L61.6558 77.8325L58.8268 79.4623L53.6822 75.2773V75.281ZM75.8304 69.6654L73.0014 71.2952L70.9997 65.2998L74.7741 63.1243L75.8304 69.6654ZM71.0994 72.3902L68.2594 74.0274L65.1572 68.6662L69.0941 66.3949L71.0958 72.3903L71.0994 72.3902ZM66.398 75.1004L63.5579 76.7375L59.3588 72.0105L63.2957 69.7392L66.398 75.1004ZM61.8997 23.7933C64.0491 22.5544 66.7341 22.8641 68.5474 24.5271L74.4121 60.8568L70.309 63.224L59.285 30.2017C58.5907 27.7166 59.6654 25.0876 61.9035 23.797L61.8997 23.7933ZM50.1033 30.5925C52.5186 29.2024 55.4472 29.4273 57.3234 31.1161L68.407 64.3158L64.086 66.8047L46.9685 37.2041C46.3813 34.7079 47.651 32.0047 50.1033 30.5925ZM37.8048 37.683C40.2533 36.2708 43.2338 36.5215 45.1062 38.2803L62.2237 67.8808L57.9064 70.3697L34.6501 44.1871C34.1256 41.7203 35.3924 39.0766 37.8077 37.6866L37.8048 37.683ZM26.0083 44.4822C28.2501 43.1916 31.0717 43.5788 32.8776 45.4261L56.0044 71.4652L51.9013 73.8324L23.3202 50.5995C22.7847 48.2028 23.8557 45.725 26.0089 44.4861L26.0083 44.4822ZM80.6008 82.4827C80.1391 84.2046 79.0423 85.6352 77.5096 86.5201L72.6161 89.3409C71.0835 90.2258 69.2923 90.4581 67.5676 89.9972C65.8466 89.5363 64.41 88.4412 63.5236 86.911L60.1961 81.1553L63.8892 79.0277L63.8929 79.0241L68.4059 76.4209L72.9338 73.8104C72.9375 73.8104 72.9375 73.8067 72.9412 73.8067L76.6159 71.6866L79.9434 77.4423C80.8298 78.9725 81.0624 80.7608 80.6008 82.4827ZM73.2661 77.7041C73.5616 78.2166 73.388 78.8729 72.871 79.1716L65.3 83.5336C65.1301 83.6294 64.9454 83.6774 64.7644 83.6774C64.3914 83.6774 64.0332 83.4856 63.8338 83.139C63.5383 82.6265 63.7119 81.9702 64.2289 81.6715L71.7999 77.3095C72.3133 77.0146 72.9707 77.1879 73.2698 77.7041H73.2661Z" fill="#B99D75"/>
</g>
<defs>
<clipPath id="clip0_33_217">
<rect width="104" height="101" fill="white" transform="translate(0 -0.000488281)"/>
</clipPath>
</defs>
</svg>
