<svg width="59" height="83" viewBox="0 0 59 83" fill="none" xmlns="http://www.w3.org/2000/svg">
<g clip-path="url(#clip0_33_205)">
<path d="M14.0485 18.3594C13.5363 18.8703 13.5232 19.6956 14.0485 20.2064C15.5458 21.726 17.4765 18.6999 17.4765 16.5647C17.4765 15.3202 16.938 14.1282 15.9004 13.1063C14.3374 11.5737 15.5064 10.1327 15.9004 9.72664C16.4126 9.21575 16.4126 8.39043 15.9004 7.8796C14.0353 6.00631 10.3972 11.3903 14.0485 14.9665C15.6115 16.5124 14.4426 17.9402 14.0485 18.3462V18.3594Z" fill="#B99D75"/>
<path d="M28.6934 14.4289C28.1811 14.9398 28.168 15.7651 28.6934 16.276C30.1906 17.7955 32.1213 14.7695 32.1213 12.6342C32.1213 11.3897 31.5828 10.1977 30.5452 9.17586C28.9823 7.64321 30.1512 6.20219 30.5452 5.79617C31.0575 5.28527 31.0575 4.45995 30.5452 3.94912C28.6934 2.07584 25.0421 7.44678 28.6934 11.0361C30.2563 12.5819 29.0874 14.0097 28.6934 14.4158V14.4289Z" fill="#B99D75"/>
<path d="M43.3242 18.3596C42.0895 19.5779 43.9415 21.4249 45.1761 20.2198C47.1199 18.3073 47.4351 15.3336 45.1761 13.1197C43.6131 11.5871 44.782 10.146 45.1761 9.74001C45.6883 9.22912 45.6883 8.4038 45.1761 7.89297C43.3242 6.01969 39.6598 11.3906 43.3242 14.9799C44.8871 16.5257 43.7182 17.9536 43.3242 18.3596Z" fill="#B99D75"/>
<path d="M55.6308 68.8326L49.0374 46.1048C52.6493 41.1532 53.5555 36.4894 53.5555 31.0659C53.5555 25.6424 39.2262 23.3109 33.6052 23.3109C29.0871 23.0751 25.8824 23.3109 25.6328 23.3109C20.0771 23.3109 5.68253 25.4461 5.68253 31.0659C5.68253 36.3451 6.50997 41.0477 10.2006 46.1048L3.6073 68.82C2.43839 72.8547 5.49861 76.9156 9.79346 76.9156C12.6566 76.9156 15.1916 75.0292 15.9796 72.3175L16.1635 71.6757H43.0881C44.9269 78.029 51.7175 78.2125 54.62 74.348C55.8283 72.7499 56.1961 70.7325 55.6445 68.8199L55.6308 68.8326ZM42.9035 27.1096C48.1966 28.2754 50.9285 29.9653 50.9285 31.0788C50.9285 32.1924 48.1966 33.8953 42.9035 35.0481V27.1096ZM34.918 26.0223C36.8882 26.1533 38.6612 26.3629 40.2767 26.6118V35.5456C38.6612 35.8076 36.8882 36.0041 34.918 36.1351V26.0091V26.0223ZM26.9325 25.8782C28.7713 25.8127 30.4525 25.8127 32.2912 25.8782V36.2666C30.4525 36.3321 28.7713 36.3321 26.9325 36.2666V25.8782ZM18.947 26.6118C20.5625 26.3498 22.3356 26.1533 24.3057 26.0223V36.1483C22.3356 36.0173 20.5625 35.8077 18.947 35.5588V26.6118ZM16.3202 27.1095V35.048C11.0272 33.8822 8.2953 32.1923 8.2953 31.0788C8.2953 29.9652 11.0272 28.2623 16.3202 27.1095ZM8.47922 34.9563C17.0556 40.2486 42.168 40.2486 50.7444 34.9563C49.4441 45.3053 40.4733 53.3488 29.6114 53.3488C18.7494 53.3488 9.76699 45.3055 8.47922 34.9563ZM40.027 61.2078H19.1832L21.1533 54.4221C26.5514 56.4394 32.4221 56.5311 38.0565 54.4221L40.027 61.2078ZM13.4437 71.5962C12.984 73.1943 11.4735 74.3078 9.77926 74.3078C7.24441 74.3078 5.43187 71.9368 6.11484 69.5658L12.209 48.5408C14.0741 50.4926 16.2806 52.1301 18.7235 53.3746L13.4305 71.6094L13.4437 71.5962ZM16.9111 69.0679L18.4346 63.8281H40.8016L42.3251 69.0679H16.9111ZM52.5046 72.7883C50.6133 75.3034 46.6336 74.5437 45.7799 71.5962L40.4869 53.3613C42.9298 52.1299 45.1363 50.4925 47.0014 48.5276L53.0956 69.5525C53.4239 70.666 53.2006 71.845 52.4914 72.7882L52.5046 72.7883Z" fill="#B99D75"/>
</g>
<defs>
<clipPath id="clip0_33_205">
<rect width="58" height="83" fill="white" transform="translate(0.192383 0.00634766)"/>
</clipPath>
</defs>
</svg>
