<svg width="79" height="61" viewBox="0 0 79 61" fill="none" xmlns="http://www.w3.org/2000/svg">
<g clip-path="url(#clip0_169_54)">
<path d="M54.0726 14.3047C53.2721 14.3047 52.5686 14.9251 52.5408 15.6613C52.527 16.0418 52.6627 16.4086 52.9314 16.6925C53.1945 16.9683 53.5546 17.131 53.9397 17.131C56.3356 17.1723 58.2163 19.0308 58.2163 21.3663V25.6016H46.8709V21.2808C46.8709 17.4536 43.7436 14.3212 39.8936 14.3074C39.0931 14.3074 38.3895 14.9278 38.3618 15.6641C38.3479 16.0446 38.4837 16.4113 38.7523 16.6953C39.0155 16.971 39.3756 17.1337 39.7606 17.1337C42.1565 17.1751 44.0373 19.0335 44.0373 21.369V25.6043L34.6333 25.6043C32.0878 25.6043 29.6558 26.812 28.124 28.8442L23.7781 34.6126C22.9139 35.7569 21.7145 36.54 20.4016 36.8019C19.8975 36.9012 19.5014 37.1052 19.2106 37.3948L19.1191 37.4858C18.7286 37.8745 18.5098 38.404 18.5098 38.9526V46.7894C18.5098 49.1248 20.4182 51.0246 22.7643 51.0246L56.8007 51.0246C59.1468 51.0246 61.0552 49.1248 61.0552 46.7894L61.0552 21.2922C61.0552 17.4649 57.928 14.3326 54.0862 14.3188L54.0726 14.3047ZM32.6779 48.187H22.7506C21.9695 48.187 21.3325 47.5529 21.3325 46.7753V39.4765L21.8227 39.3138C23.4819 38.7761 24.9776 37.7035 26.0357 36.2917L30.3817 30.5233C30.7002 30.0987 31.0991 29.7182 31.5589 29.3928L32.6779 28.6014L32.6779 48.187ZM44.0234 48.187H35.5143V28.4223L44.0234 28.4223V48.187ZM58.2052 46.7753C58.2052 47.5529 57.5681 48.187 56.787 48.187L46.8597 48.187V39.7165H58.2052L58.2052 46.7753ZM58.2052 36.8929H46.8597V28.4223H58.2052V36.8929Z" fill="#B99D75"/>
<path d="M29.8412 10.0692C29.8412 11.9525 27.0049 11.9525 27.0049 10.0692C27.0049 8.18591 29.8412 8.18591 29.8412 10.0692Z" fill="#B99D75"/>
<path d="M21.3315 21.3636C21.3315 23.2469 18.4951 23.2469 18.4951 21.3636C18.4951 19.4803 21.3315 19.4803 21.3315 21.3636Z" fill="#B99D75"/>
</g>
<defs>
<clipPath id="clip0_169_54">
<rect width="78" height="60" fill="white" transform="translate(0.768555 0.187012)"/>
</clipPath>
</defs>
</svg>
