<svg width="71" height="75" viewBox="0 0 71 75" fill="none" xmlns="http://www.w3.org/2000/svg">
<g clip-path="url(#clip0_22_190)">
<path d="M69.6113 31.3863H62.3733L60.7684 26.9949C61.017 26.9329 61.2356 26.7855 61.3854 26.5786C61.5353 26.3717 61.6067 26.1187 61.5871 25.8644C61.5839 25.8214 61.3046 21.5338 63.8857 18.4843C63.9785 18.375 64.0488 18.2485 64.0925 18.1122C64.1361 17.9758 64.1523 17.8322 64.1402 17.6896C64.128 17.5471 64.0877 17.4082 64.0215 17.2812C63.9554 17.1541 63.8647 17.0413 63.7546 16.9491C63.6446 16.857 63.5174 16.7873 63.3802 16.7441C63.2431 16.7009 63.0988 16.6851 62.9555 16.6975C62.8122 16.7099 62.6728 16.7503 62.5452 16.8163C62.4176 16.8824 62.3044 16.9729 62.212 17.0825C59.9321 19.7766 59.4723 23.1172 59.3991 24.8569H55.0278C54.7466 24.8562 54.476 24.9635 54.2724 25.1565C54.0688 25.3495 53.948 25.6132 53.9351 25.8927C53.9223 26.1722 54.0184 26.4458 54.2035 26.6565C54.3885 26.8672 54.6482 26.9986 54.9282 27.0234L53.3337 31.3863H48.8301V22.6805H53.2051C53.4952 22.6805 53.7734 22.5658 53.9785 22.3617C54.1836 22.1576 54.2988 21.8808 54.2988 21.5922C54.2988 21.3036 54.1836 21.0268 53.9785 20.8227C53.7734 20.6186 53.4952 20.504 53.2051 20.504H49.1252L51.4107 11.2893C52.0223 11.5853 52.5446 12.0365 52.9252 12.5973C52.9357 12.613 52.9503 12.6239 52.9614 12.639C52.9958 12.6857 53.0339 12.7296 53.0753 12.7702C53.0954 12.7898 53.115 12.8092 53.1363 12.8269C53.1848 12.8671 53.2367 12.9029 53.2915 12.9341C53.3076 12.9434 53.3222 12.9548 53.3387 12.9632C53.4111 13.0002 53.4875 13.0289 53.5663 13.0491L53.5746 13.0521C53.5857 13.0548 53.5974 13.054 53.6086 13.0564L53.6097 13.0565C53.6728 13.0702 53.737 13.0783 53.8015 13.0806C53.8162 13.0812 53.8308 13.0861 53.8454 13.0861C53.8658 13.0861 53.8852 13.0794 53.9055 13.0783C53.9949 13.0708 54.0835 13.0553 54.1702 13.032C54.185 13.0273 54.1992 13.0196 54.2139 13.0141C54.2827 12.9913 54.349 12.9618 54.4119 12.9258C55.09 12.5266 55.8926 12.3908 56.6653 12.5446C57.438 12.6984 58.1263 13.1308 58.598 13.7589C58.607 13.7723 58.6195 13.7816 58.629 13.7945C58.6655 13.8447 58.7062 13.8917 58.7508 13.935C58.7708 13.9543 58.7907 13.9728 58.8119 13.9903C58.8572 14.0274 58.9054 14.0607 58.9562 14.09C58.977 14.1021 58.9964 14.1162 59.0178 14.127C59.0907 14.1642 59.1675 14.1931 59.2469 14.2132C59.3329 14.2343 59.4215 14.245 59.5102 14.2451C59.6055 14.2439 59.7003 14.2302 59.792 14.2043C59.8065 14.2004 59.8208 14.1978 59.8351 14.1934C59.9251 14.1649 60.011 14.1248 60.0906 14.0743C60.0982 14.0696 60.1067 14.0683 60.1142 14.0633C60.1235 14.0572 60.1305 14.049 60.1396 14.0427C60.1785 14.015 60.2155 13.9848 60.2504 13.9522C60.2655 13.9383 60.2816 13.9256 60.2958 13.911C60.341 13.8649 60.382 13.8148 60.4182 13.7614L60.4215 13.7573C60.4579 13.7019 60.4891 13.6433 60.5147 13.5823C60.5239 13.5607 60.5295 13.5382 60.5373 13.5161C60.5488 13.4835 60.5623 13.452 60.5708 13.4177C60.5735 13.407 60.5745 13.3962 60.5772 13.3854L60.5829 13.3561C60.8911 12.0906 60.9432 10.7767 60.7361 9.49097C60.529 8.20525 60.0669 6.97336 59.3767 5.86705C57.9447 3.56216 55.661 1.90828 53.0165 1.26094C52.9666 1.24295 52.9155 1.22864 52.8636 1.21813C52.832 1.2106 52.8021 1.19934 52.7704 1.19207L52.7533 1.18904C52.7367 1.18549 52.7201 1.18291 52.7033 1.18014C47.1073 -0.0632241 41.4852 3.27624 40.1247 8.65877C40.1225 8.66657 40.1198 8.67415 40.1177 8.68201C40.1161 8.68822 40.1137 8.69403 40.1121 8.70025C40.106 8.72492 40.1059 8.7494 40.1015 8.77407C40.0931 8.81548 40.0871 8.85734 40.0836 8.89944C40.0816 8.93276 40.0845 8.96528 40.0856 8.99821C40.0858 9.03596 40.0881 9.07368 40.0923 9.11119C40.0972 9.14602 40.1066 9.17924 40.1148 9.21312C40.1221 9.24825 40.1312 9.28298 40.1421 9.3172C40.1561 9.35393 40.1721 9.38989 40.19 9.4249C40.2018 9.44961 40.2094 9.47528 40.2232 9.49944C40.2257 9.50383 40.2292 9.50715 40.2318 9.51146C40.2537 9.54616 40.2776 9.5796 40.3034 9.61162C40.322 9.63633 40.3384 9.66317 40.3588 9.68592C40.3809 9.71063 40.4074 9.73122 40.4318 9.7539C40.4582 9.78048 40.486 9.8057 40.515 9.82945C40.5358 9.84506 40.5598 9.85655 40.5818 9.87073C40.6187 9.89612 40.6572 9.91922 40.697 9.93991C40.7167 9.94941 40.7386 9.95502 40.759 9.96339C40.8051 9.98338 40.8525 10.0002 40.9009 10.0137L40.9116 10.0175C40.9334 10.0229 40.955 10.0228 40.9768 10.0268C41.0215 10.0361 41.0667 10.0426 41.1121 10.0462C41.1457 10.0482 41.1783 10.0453 41.2115 10.0442C41.2857 10.0458 41.3598 10.0357 41.4309 10.0142C41.4642 10.0061 41.4976 9.99977 41.5304 9.98841C41.5701 9.97357 41.6089 9.95644 41.6466 9.9371C41.6692 9.92628 41.6927 9.9195 41.7148 9.90698C42.4362 9.52941 43.2732 9.43295 44.0622 9.63644C44.8512 9.83993 45.5357 10.3287 45.982 11.0074C45.9844 11.0111 45.9878 11.0134 45.9903 11.017C46.0053 11.0391 46.0229 11.0588 46.0395 11.0796C46.0607 11.1063 46.0822 11.1321 46.1055 11.1564C46.1206 11.1722 46.1351 11.1882 46.1512 11.2031C46.1646 11.2154 46.1788 11.2258 46.1926 11.2374C46.2159 11.2569 46.2393 11.2756 46.2639 11.2929C46.2918 11.3126 46.321 11.3297 46.3506 11.3467C46.3661 11.3555 46.3802 11.3664 46.3961 11.3745C46.4114 11.3823 46.4272 11.3882 46.4429 11.3953C46.476 11.4097 46.5099 11.4225 46.5443 11.4336C46.5701 11.4422 46.595 11.4526 46.6214 11.4594C46.6312 11.4619 46.641 11.4635 46.6509 11.4658C46.6813 11.4727 46.7125 11.4762 46.7438 11.4805C46.7805 11.486 46.8175 11.4897 46.8546 11.4914C46.8678 11.4919 46.8803 11.4952 46.8936 11.4952L46.895 11.4952C46.9056 11.4952 46.9166 11.4952 46.9272 11.4947C46.9422 11.4943 46.956 11.49 46.9708 11.489C47.0103 11.486 47.0497 11.4809 47.0887 11.4736C47.1203 11.4679 47.1515 11.4622 47.182 11.454C47.1931 11.451 47.204 11.4492 47.2151 11.4458C47.2399 11.4382 47.2637 11.4271 47.2881 11.4177C47.3246 11.4038 47.3604 11.3881 47.3952 11.3704C47.4086 11.3635 47.4229 11.3598 47.4362 11.3523C47.9976 11.0376 48.6264 10.8607 49.2703 10.8363L46.8724 20.504H42.2676C41.9775 20.504 41.6993 20.6186 41.4942 20.8227C41.2891 21.0268 41.1738 21.3036 41.1738 21.5922C41.1738 21.8808 41.2891 22.1576 41.4942 22.3617C41.6993 22.5658 41.9775 22.6805 42.2676 22.6805H46.6426V31.3863H42.139L40.5444 27.0234C40.8245 26.9986 41.0842 26.8672 41.2692 26.6565C41.4542 26.4458 41.5504 26.1722 41.5375 25.8927C41.5247 25.6132 41.4038 25.3495 41.2003 25.1565C40.9967 24.9635 40.726 24.8562 40.4448 24.8569H36.0736C36.0004 23.1172 35.5406 19.7766 33.2607 17.0825C33.0737 16.8623 32.8065 16.725 32.5178 16.7006C32.2291 16.6762 31.9425 16.7667 31.7208 16.9524C31.4991 17.138 31.3605 17.4036 31.3355 17.6908C31.3104 17.978 31.4008 18.2634 31.587 18.4843C34.1681 21.5338 33.8888 25.8214 33.8855 25.8617C33.8646 26.1166 33.9355 26.3705 34.0854 26.5782C34.2354 26.7858 34.4547 26.9336 34.7042 26.9951L33.0993 31.3863H1.79883C1.50875 31.3864 1.23056 31.501 1.02545 31.7051C0.820331 31.9092 0.705093 32.186 0.705078 32.4746L0.705078 37.9158C0.705093 38.2044 0.820331 38.4812 1.02545 38.6852C1.23056 38.8893 1.50875 39.004 1.79883 39.004H3.98633V69.4746C3.98633 69.7632 4.10156 70.04 4.30668 70.2441C4.5118 70.4482 4.79 70.5628 5.08008 70.5628C5.37016 70.5628 5.64836 70.4482 5.85348 70.2441C6.05859 70.04 6.17383 69.7632 6.17383 69.4746V39.004H66.3301V69.4746C66.3301 69.7632 66.4453 70.04 66.6504 70.2441C66.8555 70.4482 67.1338 70.5628 67.4238 70.5628C67.7139 70.5628 67.9921 70.4482 68.1972 70.2441C68.4023 70.04 68.5176 69.7632 68.5176 69.4746V39.004H69.6113C69.9014 39.004 70.1796 38.8893 70.3847 38.6852C70.5898 38.4812 70.7051 38.2044 70.7051 37.9158V32.4746C70.7051 32.186 70.5898 31.9092 70.3847 31.7051C70.1796 31.501 69.9014 31.3864 69.6113 31.3863ZM57.5133 7.00732C58.2539 8.2013 58.652 9.57419 58.6643 10.9772C57.7313 10.4824 56.6754 10.2639 55.6215 10.3475C56.0289 8.48536 55.9507 6.55052 55.3944 4.72695C56.2425 5.34339 56.9621 6.11785 57.5133 7.00732ZM42.9733 7.36181C43.5875 6.26551 44.4437 5.32216 45.4774 4.60279C46.511 3.88341 47.6953 3.40677 48.941 3.20876C47.5802 4.59446 46.5961 6.30183 46.0813 8.17021C45.1466 7.60515 44.0664 7.32416 42.9733 7.36181ZM48.1768 8.78447C48.7669 6.41857 50.6458 4.11018 52.3058 3.45614C53.4764 4.7619 54.0595 7.64632 53.4579 10.0112C52.7184 9.44024 51.8637 9.03503 50.9522 8.8233C50.0406 8.61157 49.0939 8.59832 48.1768 8.78447ZM57.2526 27.0334H58.4544L60.0453 31.3863H55.6617L57.2526 27.0334ZM37.0182 27.0334H38.2201L39.8109 31.3863H35.4273L37.0182 27.0334ZM68.5176 36.8275H2.89258V33.5628H68.5176V36.8275Z" fill="#B99D75"/>
<path d="M12.1895 51.5185H17.6582C17.9483 51.5185 18.2265 51.4039 18.4316 51.1998C18.6367 50.9957 18.7519 50.7189 18.752 50.4303V44.9891C18.7519 44.7005 18.6367 44.4237 18.4316 44.2196C18.2265 44.0156 17.9483 43.9009 17.6582 43.9009H12.1895C11.8994 43.9009 11.6212 44.0156 11.4161 44.2196C11.211 44.4237 11.0957 44.7005 11.0957 44.9891V50.4303C11.0957 50.7189 11.211 50.9957 11.4161 51.1998C11.6212 51.4039 11.8994 51.5185 12.1895 51.5185ZM13.2832 46.0773H16.5645V49.3421H13.2832V46.0773Z" fill="#B99D75"/>
<path d="M11.0957 62.401C11.0957 62.6896 11.211 62.9664 11.4161 63.1705C11.6212 63.3746 11.8994 63.4892 12.1895 63.4892H17.6582C17.9483 63.4892 18.2265 63.3746 18.4316 63.1705C18.6367 62.9664 18.7519 62.6896 18.752 62.401V56.9598C18.7519 56.6712 18.6367 56.3944 18.4316 56.1903C18.2265 55.9863 17.9483 55.8716 17.6582 55.8716H12.1895C11.8994 55.8716 11.6212 55.9863 11.4161 56.1903C11.211 56.3944 11.0957 56.6712 11.0957 56.9598V62.401ZM13.2832 58.0481H16.5645V61.3128H13.2832V58.0481Z" fill="#B99D75"/>
<path d="M54.8457 51.518H60.3145C60.6045 51.518 60.8827 51.4034 61.0878 51.1993C61.293 50.9952 61.4082 50.7184 61.4082 50.4298V44.9886C61.4082 44.7 61.293 44.4232 61.0878 44.2191C60.8827 44.0151 60.6045 43.9004 60.3145 43.9004H54.8457C54.5556 43.9004 54.2774 44.0151 54.0723 44.2191C53.8672 44.4232 53.752 44.7 53.752 44.9886V50.4298C53.752 50.7184 53.8672 50.9952 54.0723 51.1993C54.2774 51.4034 54.5556 51.518 54.8457 51.518ZM55.9395 46.0769H59.2207V49.3416H55.9395V46.0769Z" fill="#B99D75"/>
<path d="M53.752 62.401C53.752 62.6896 53.8672 62.9664 54.0723 63.1705C54.2774 63.3746 54.5556 63.4892 54.8457 63.4892H60.3145C60.6045 63.4892 60.8827 63.3746 61.0878 63.1705C61.293 62.9664 61.4082 62.6896 61.4082 62.401V56.9598C61.4082 56.6712 61.293 56.3944 61.0878 56.1903C60.8827 55.9863 60.6045 55.8716 60.3145 55.8716H54.8457C54.5556 55.8716 54.2774 55.9863 54.0723 56.1903C53.8672 56.3944 53.752 56.6712 53.752 56.9598V62.401ZM55.9395 58.0481H59.2207V61.3128H55.9395V58.0481Z" fill="#B99D75"/>
<path d="M40.627 51.5185H46.0957C46.3858 51.5185 46.664 51.4039 46.8691 51.1998C47.0742 50.9957 47.1894 50.7189 47.1895 50.4303V44.9891C47.1894 44.7005 47.0742 44.4237 46.8691 44.2196C46.664 44.0156 46.3858 43.9009 46.0957 43.9009H40.627C40.3369 43.9009 40.0587 44.0156 39.8536 44.2196C39.6485 44.4237 39.5332 44.7005 39.5332 44.9891V50.4303C39.5332 50.7189 39.6485 50.9957 39.8536 51.1998C40.0587 51.4039 40.3369 51.5185 40.627 51.5185ZM41.7207 46.0773H45.002V49.3421H41.7207V46.0773Z" fill="#B99D75"/>
<path d="M39.5332 62.401C39.5332 62.6896 39.6485 62.9664 39.8536 63.1705C40.0587 63.3746 40.3369 63.4892 40.627 63.4892H46.0957C46.3858 63.4892 46.664 63.3746 46.8691 63.1705C47.0742 62.9664 47.1894 62.6896 47.1895 62.401V56.9598C47.1894 56.6712 47.0742 56.3944 46.8691 56.1903C46.664 55.9863 46.3858 55.8716 46.0957 55.8716H40.627C40.3369 55.8716 40.0587 55.9863 39.8536 56.1903C39.6485 56.3944 39.5332 56.6712 39.5332 56.9598V62.401ZM41.7207 58.0481H45.002V61.3128H41.7207V58.0481Z" fill="#B99D75"/>
<path d="M26.4082 51.5185H31.877C32.167 51.5185 32.4452 51.4039 32.6503 51.1998C32.8555 50.9957 32.9707 50.7189 32.9707 50.4303V44.9891C32.9707 44.7005 32.8555 44.4237 32.6503 44.2196C32.4452 44.0156 32.167 43.9009 31.877 43.9009H26.4082C26.1181 43.9009 25.8399 44.0156 25.6348 44.2196C25.4297 44.4237 25.3145 44.7005 25.3145 44.9891V50.4303C25.3145 50.7189 25.4297 50.9957 25.6348 51.1998C25.8399 51.4039 26.1181 51.5185 26.4082 51.5185ZM27.502 46.0773H30.7832V49.3421H27.502V46.0773Z" fill="#B99D75"/>
<path d="M25.3145 62.401C25.3145 62.6896 25.4297 62.9664 25.6348 63.1705C25.8399 63.3746 26.1181 63.4892 26.4082 63.4892H31.877C32.167 63.4892 32.4452 63.3746 32.6503 63.1705C32.8555 62.9664 32.9707 62.6896 32.9707 62.401V56.9598C32.9707 56.6712 32.8555 56.3944 32.6503 56.1903C32.4452 55.9863 32.167 55.8716 31.877 55.8716H26.4082C26.1181 55.8716 25.8399 55.9863 25.6348 56.1903C25.4297 56.3944 25.3145 56.6712 25.3145 56.9598V62.401ZM27.502 58.0481H30.7832V61.3128H27.502V58.0481Z" fill="#B99D75"/>
</g>
<defs>
<clipPath id="clip0_22_190">
<rect width="70" height="74" fill="white" transform="translate(0.705078 0.915527)"/>
</clipPath>
</defs>
</svg>
