<svg width="64" height="68" viewBox="0 0 64 68" fill="none" xmlns="http://www.w3.org/2000/svg">
<g clip-path="url(#clip0_169_43)">
<path d="M62.0019 19.063C62.0019 12.9976 57.0673 8.06299 51.002 8.06299C48.3486 8.06299 45.4097 9.03519 43.002 10.688C42.0053 10.0039 40.9159 9.44439 39.7952 9.01419C38.8245 3.87149 34.2964 0.0629883 29.002 0.0629883C26.3487 0.0629883 23.4097 1.03519 21.002 2.68799C18.5943 1.03519 15.6553 0.0629883 13.002 0.0629883C6.93655 0.0629883 2.00195 4.99759 2.00195 11.063C2.00195 21.9729 12.3357 27.1378 17.6734 29.078L16.0405 34.7881C15.9541 35.0899 16.0146 35.4146 16.2036 35.6651C16.3926 35.9156 16.688 36.063 17.0019 36.063H19.9155C19.8366 36.5014 19.714 36.8378 19.5736 37.189C19.3055 37.8579 19.0018 38.6167 19.0018 40.0581C19.0018 41.5005 19.3055 42.2593 19.5731 42.9292C19.8031 43.5039 20.0018 44 20.0018 45.0576C20.0018 46.1152 19.8031 46.6123 19.5731 47.1875C19.3055 47.8574 19.0018 48.6167 19.0018 50.0601C19.0018 51.5035 19.3055 52.2627 19.5731 52.9327C19.8031 53.5079 20.0018 54.005 20.0018 55.0631C20.0018 55.6153 20.4496 56.0631 21.0018 56.0631C21.554 56.0631 22.0018 55.6153 22.0018 55.0631C22.0018 53.6197 21.6981 52.8605 21.4305 52.1905C21.2005 51.6153 21.0018 51.1182 21.0018 50.0601C21.0018 49.002 21.2005 48.5049 21.4305 47.9297C21.6981 47.2598 22.0018 46.5005 22.0018 45.0576C22.0018 43.6147 21.6981 42.8559 21.43 42.186C21.2005 41.6113 21.0018 41.1152 21.0018 40.0581C21.0018 39.0019 21.2005 38.5063 21.43 37.9321C21.6279 37.4382 21.8445 36.8933 21.9446 36.063H25.0017C25.3157 36.063 25.6111 35.9155 25.8 35.6651C25.9889 35.4147 26.0495 35.0899 25.9631 34.7881L24.3355 29.0964C25.0864 28.8274 25.9339 28.4951 26.8407 28.0903C30.2939 33.0346 36.1003 35.7794 39.673 37.078L38.0401 42.7881C37.9537 43.0899 38.0142 43.4146 38.2031 43.6651C38.3921 43.9156 38.6876 44.063 39.0015 44.063H41.9151C41.8362 44.5014 41.7136 44.8378 41.5732 45.189C41.3051 45.8579 41.0014 46.6167 41.0014 48.0581C41.0014 49.5005 41.3051 50.2593 41.5727 50.9292C41.8027 51.5039 42.0014 52 42.0014 53.0576C42.0014 54.1152 41.8027 54.6123 41.5727 55.1875C41.3051 55.8574 41.0014 56.6167 41.0014 58.0601C41.0014 59.5035 41.3051 60.2627 41.5727 60.9327C41.8027 61.5079 42.0014 62.005 42.0014 63.0631C42.0014 63.6153 42.4492 64.0631 43.0014 64.0631C43.5536 64.0631 44.0014 63.6153 44.0014 63.0631C44.0014 61.6197 43.6977 60.8605 43.4301 60.1905C43.2001 59.6153 43.0014 59.1182 43.0014 58.0601C43.0014 57.002 43.2001 56.5049 43.4301 55.9297C43.6977 55.2598 44.0014 54.5005 44.0014 53.0576C44.0014 51.6147 43.6977 50.8559 43.4296 50.186C43.2001 49.6113 43.0014 49.1152 43.0014 48.0581C43.0014 47.0019 43.2001 46.5063 43.4296 45.9321C43.6275 45.4382 43.844 44.8933 43.9442 44.063H47.0012C47.3152 44.063 47.6107 43.9155 47.7996 43.6651C47.9885 43.4147 48.0491 43.0899 47.9627 42.7881L46.3298 37.078C51.6675 35.1378 62.0019 29.9728 62.0019 19.063ZM23.6758 34.063H18.3281L19.573 29.7089C20.307 29.9281 20.7568 30.0329 20.7851 30.0391C20.8564 30.0552 20.9291 30.063 21.0019 30.063C21.0742 30.063 21.1469 30.0552 21.2182 30.0396C21.2637 30.0295 21.7097 29.9288 22.4332 29.7173L23.6758 34.063ZM22.8437 27.4912L22.8369 27.4917L22.8281 27.4963C21.9739 27.7765 21.3196 27.9543 21.0034 28.0337C19.0107 27.5259 4.00185 23.2847 4.00185 11.063C4.00195 6.10059 8.03955 2.06299 13.002 2.06299C15.459 2.06299 18.2222 3.05519 20.3941 4.71679C20.7535 4.99119 21.2505 4.99119 21.6099 4.71679C23.7818 3.05519 26.545 2.06299 29.002 2.06299C32.9728 2.06299 36.4209 4.67989 37.5794 8.35569C36.709 8.17049 35.8411 8.06299 35.002 8.06299C28.9366 8.06299 24.002 12.9976 24.002 19.063C24.002 21.8633 24.6866 24.2824 25.7893 26.3685C24.6753 26.8546 23.6675 27.2205 22.8437 27.4912ZM45.6758 42.063H40.3281L41.5729 37.7089C42.307 37.9281 42.7567 38.0329 42.7851 38.0391C42.8564 38.0552 42.9291 38.063 43.0019 38.063C43.0747 38.063 43.1474 38.0552 43.2187 38.0391C43.247 38.0329 43.6967 37.9281 44.4307 37.7089L45.6758 42.063ZM43.002 36.0337C41.0044 35.5239 26.002 31.2822 26.002 19.063C26.002 14.1006 30.0396 10.063 35.002 10.063C36.1756 10.063 37.4186 10.2952 38.6343 10.7129L38.6554 10.7195C39.9771 11.1762 41.2658 11.8535 42.3942 12.7168C42.7536 12.9912 43.2506 12.9912 43.61 12.7168C45.7819 11.0552 48.545 10.063 51.002 10.063C55.9644 10.063 60.002 14.1006 60.002 19.063C60.002 31.2822 44.9996 35.5239 43.002 36.0337Z" fill="#B99D75"/>
</g>
<defs>
<clipPath id="clip0_169_43">
<rect width="64" height="67" fill="white" transform="translate(0.00195312 0.0629883)"/>
</clipPath>
</defs>
</svg>
