<svg width="89" height="91" viewBox="0 0 89 91" fill="none" xmlns="http://www.w3.org/2000/svg">
<g clip-path="url(#clip0_33_227)">
<path d="M15.916 55.7988V58.106C15.916 61.7283 18.8504 64.6727 22.4567 64.6727H40.1191V70.3291H34.4066C31.3347 70.3291 28.8347 72.8402 28.8347 75.9258V79.9311H60.5348V75.9258C60.5348 72.8402 58.0348 70.3291 54.9629 70.3291H49.2504V64.6727H66.9128C70.5191 64.6727 73.4535 61.7283 73.4535 58.106V55.7988H15.916ZM57.8376 75.9323V77.2318L31.528 77.2287V75.9292C31.528 74.3346 32.8218 73.0382 34.4062 73.0382H54.959C56.5465 73.0382 57.8372 74.3377 57.8372 75.9292L57.8376 75.9323ZM66.9096 61.967L22.4568 61.9639C20.4724 61.9639 18.8319 60.4478 18.6319 58.5048H70.7383C70.5383 60.4447 68.8976 61.9639 66.9133 61.9639L66.9096 61.967Z" fill="#B99D75"/>
<path d="M20.9535 35.1446C20.9535 30.8662 24.4191 27.3819 28.6785 27.3819H31.7316C30.6941 28.65 30.0441 30.2509 30.0441 32.015V52.3871H32.7378L32.7409 32.015C32.7409 29.4599 34.8097 27.3819 37.3534 27.3819H40.1221V52.3866H42.8159V21.3455C42.8159 20.3096 43.6534 19.4684 44.6846 19.4684C45.7158 19.4684 46.5533 20.3097 46.5533 21.3455V52.3866H49.2471V27.3819H52.0158C54.5595 27.3819 56.6283 29.4599 56.6283 32.015V52.3871H59.322L59.3251 32.015C59.3251 30.2509 58.6751 28.65 57.6376 27.3819H60.6907C64.9501 27.3819 68.4157 30.8661 68.4157 35.1446V52.3868H71.1094V35.1446C71.1094 29.372 66.4344 24.6764 60.6911 24.6764H49.2471V21.346C49.2471 18.8161 47.2033 16.7632 44.6846 16.7632C42.1659 16.7632 40.1221 18.8161 40.1221 21.346V24.6764H28.6781C22.9344 24.6764 18.2598 29.3723 18.2598 35.1446V52.3868H20.9535L20.9535 35.1446Z" fill="#B99D75"/>
</g>
<defs>
<clipPath id="clip0_33_227">
<rect width="88" height="90" fill="white" transform="translate(0.68457 0.132812)"/>
</clipPath>
</defs>
</svg>
