<svg width="160" height="164" viewBox="0 0 160 164" fill="none" xmlns="http://www.w3.org/2000/svg">
<g clip-path="url(#clip0_62_288)">
<path d="M110.665 74.9863H43.8418V52.0887C43.8418 50.2802 42.3759 48.8232 40.5691 48.8232C38.7509 48.8232 37.2737 50.2746 37.251 52.0887V122.07C37.2737 123.884 38.7509 125.336 40.5691 125.336C42.3759 125.336 43.8418 123.879 43.8418 122.07V116.588H116.364V122.07C116.364 123.879 117.83 125.336 119.637 125.336C121.449 125.336 122.926 123.884 122.949 122.07V87.0802C122.966 83.8828 121.682 80.8101 119.392 78.5763C117.091 76.2519 113.943 74.9523 110.665 74.9863ZM43.8418 110.017V81.7959H110.665C113.693 81.7052 116.233 84.058 116.364 87.0796V110.018L43.8418 110.017Z" fill="#B99D75"/>
<path d="M141.13 26.0847C138.846 23.8226 135.744 22.5584 132.522 22.5754H27.4766C24.2778 22.581 21.2153 23.8396 18.9482 26.0847C16.6528 28.3524 15.3572 31.4421 15.3516 34.6736V139.487C15.3516 146.171 20.7777 151.585 27.4765 151.585H132.522C135.721 151.579 138.784 150.321 141.051 148.076C143.346 145.808 144.642 142.718 144.647 139.487V34.6735C144.664 31.4591 143.397 28.3637 141.13 26.0847ZM138.062 139.487C138.108 140.967 137.539 142.401 136.488 143.444C135.443 144.493 134.005 145.06 132.522 145.014H27.4766C25.9937 145.06 24.5562 144.493 23.5107 143.444C22.4595 142.401 21.8913 140.967 21.9369 139.487V34.6736C21.8914 33.194 22.4596 31.7596 23.5107 30.7164C24.5561 29.6676 25.9936 29.1007 27.4766 29.1461H132.522C134.005 29.1007 135.443 29.6677 136.488 30.7164C137.539 31.7596 138.108 33.1938 138.062 34.6736V139.487Z" fill="#B99D75"/>
</g>
<defs>
<clipPath id="clip0_62_288">
<rect width="160" height="164" fill="white"/>
</clipPath>
</defs>
</svg>
