<svg width="200" height="198" viewBox="0 0 200 198" fill="none" xmlns="http://www.w3.org/2000/svg">
<g clip-path="url(#clip0_257_66)">
<path d="M109.616 119.509C114.055 97.4756 99.7012 75.9537 77.6341 71.5238C55.5813 67.1073 34.005 81.4202 29.565 103.446L29.0039 106.225L109.06 122.289L109.621 119.51L109.616 119.509ZM81.2213 110.924L59.0759 106.487C63.5788 86.9846 72.1512 76.1737 76.5119 77.0956C80.965 77.9889 84.6226 91.21 81.2206 110.933L81.2213 110.924ZM66.477 76.5427C60.7881 82.7952 56.0935 93.8827 53.4513 105.353L35.8023 101.815C39.8506 87.694 52.2868 77.8257 66.477 76.5427ZM104.495 115.59L86.8461 112.053C88.8419 100.441 88.7779 88.3894 85.9441 80.4278C91.1003 83.1288 95.5321 87.0775 98.849 92.0468C103.522 99.058 105.482 107.317 104.495 115.59Z" fill="#B99D75"/>
<path d="M140.398 151.466C131.492 151.466 123.836 155.769 119.902 162.008C115.967 155.769 108.304 151.466 99.4058 151.466C90.5074 151.466 82.8432 155.769 78.9094 162.008C75.8767 157.201 70.6352 153.6 64.2929 152.182L70.3014 122.337L64.7332 121.217L58.6394 151.488C58.5684 151.488 58.4903 151.474 58.4192 151.474C45.55 151.474 35.0811 160.364 35.0811 171.288H40.7629C40.7629 163.49 48.682 157.146 58.4191 157.146C68.1492 157.146 76.0752 163.49 76.0752 171.288H81.757C81.757 163.49 89.6761 157.146 99.4132 157.146C109.143 157.146 117.069 163.49 117.069 171.288H122.751C122.751 163.49 130.67 157.146 140.407 157.146C150.138 157.146 158.064 163.49 158.064 171.288H163.745C163.745 160.364 153.277 151.474 140.407 151.474L140.398 151.466Z" fill="#B99D75"/>
<path d="M130.696 60.7819H132.408C134.943 60.7819 136.648 58.1873 135.632 55.8621L131.548 46.4902L127.465 55.8621C126.456 58.1802 128.161 60.7819 130.689 60.7819H130.696Z" fill="#B99D75"/>
<path d="M147.563 67.7581C149.353 69.5445 152.4 68.9136 153.323 66.56L157.073 57.0464L147.542 60.7894C145.184 61.7181 144.552 64.7523 146.342 66.5388L147.563 67.7581Z" fill="#B99D75"/>
<path d="M153.338 81.6741V83.3825C153.338 85.9133 155.937 87.6147 158.267 86.6009L167.656 82.5247L158.267 78.4484C155.944 77.4418 153.338 79.1431 153.338 81.6668V81.6741Z" fill="#B99D75"/>
<path d="M147.549 104.259L157.081 108.01L153.331 98.4959C152.4 96.1423 149.36 95.5114 147.571 97.2978L146.363 98.503C144.573 100.289 145.206 103.331 147.564 104.252L147.549 104.259Z" fill="#B99D75"/>
<path d="M130.696 104.274C128.161 104.274 126.456 106.869 127.472 109.194L131.556 118.566L135.64 109.194C136.648 106.876 134.944 104.274 132.415 104.274H130.696Z" fill="#B99D75"/>
<path d="M115.548 67.7581L116.755 66.5529C118.545 64.7665 117.913 61.7252 115.555 60.8036L106.023 57.0605L109.781 66.5742C110.711 68.9278 113.751 69.5586 115.541 67.7722L115.548 67.7581Z" fill="#B99D75"/>
<path d="M144.191 82.5322C144.191 89.4936 138.537 95.1437 131.556 95.1437C124.581 95.1437 118.921 89.4936 118.921 82.5322C118.921 75.5636 124.581 69.9136 131.556 69.9136C138.537 69.9136 144.191 75.5636 144.191 82.5322Z" fill="#B99D75"/>
</g>
<defs>
<clipPath id="clip0_257_66">
<rect width="200" height="198" fill="white"/>
</clipPath>
</defs>
</svg>
