<svg width="28" height="25" viewBox="0 0 28 25" fill="none" xmlns="http://www.w3.org/2000/svg">
<g clip-path="url(#clip0_30_20)">
<path fill-rule="evenodd" clip-rule="evenodd" d="M4.93168 12.6568C2.79636 13.2106 1.21875 15.1619 1.21875 17.4841V22.9504C1.21875 23.2406 1.45299 23.4761 1.74114 23.4761C2.0295 23.4761 2.26353 23.2406 2.26353 22.9504V21.7604H25.5969V22.9504C25.5969 23.2406 25.831 23.4761 26.1193 23.4761C26.4077 23.4761 26.6417 23.2406 26.6417 22.9504V17.4862C26.6417 15.1638 25.0641 13.2119 22.9288 12.6573V6.20698C22.9288 5.30075 22.1989 4.56592 21.2983 4.56592H6.56215C5.66177 4.56592 4.93168 5.30075 4.93168 6.20698V12.6568ZM25.5969 18.012V20.7088H2.26353V18.012H25.5969ZM25.5622 16.9605C25.3071 15.0357 23.6693 13.5509 21.687 13.5509H6.17141C4.18947 13.5509 2.5523 15.0359 2.298 16.9605H25.5622ZM21.884 12.5033V12.1384C21.884 11.6865 21.7056 11.2528 21.3879 10.9331C21.0703 10.6134 20.6395 10.4338 20.1902 10.4338H16.1465C15.6973 10.4338 15.2664 10.6134 14.9488 10.9331C14.6312 11.2528 14.4527 11.6865 14.4527 12.1386V12.4993H21.687C21.7528 12.4993 21.8186 12.5006 21.884 12.5033ZM13.4079 12.4993V12.1384C13.4079 11.6865 13.2295 11.2528 12.9117 10.9331C12.5941 10.6134 12.1632 10.4338 11.7142 10.4338H7.67024C7.2212 10.4338 6.79033 10.6134 6.47272 10.9331C6.1549 11.2528 5.97645 11.6865 5.97645 12.1386V12.5031C6.04102 12.5006 6.106 12.4993 6.17141 12.4993H13.4079ZM21.884 9.97262V6.20698C21.884 5.88142 21.6218 5.61748 21.2983 5.61748H6.56215C6.23869 5.61748 5.97645 5.88142 5.97645 6.20698V9.97262C6.45684 9.59217 7.05278 9.38228 7.67024 9.38228C8.91666 9.38228 10.4677 9.38228 11.7142 9.38228C12.4403 9.38228 13.1369 9.67251 13.6505 10.1895C13.7529 10.2925 13.8463 10.4029 13.9303 10.5192C14.0141 10.4029 14.1077 10.2925 14.2099 10.1895C14.7235 9.67251 15.4202 9.38228 16.1465 9.38228C17.3927 9.38228 18.9438 9.38228 20.1902 9.38228C20.8077 9.38228 21.4038 9.59217 21.884 9.97262Z" fill="white"/>
</g>
<defs>
<clipPath id="clip0_30_20">
<rect width="28" height="25" fill="white"/>
</clipPath>
</defs>
</svg>
