<svg width="22" height="22" viewBox="0 0 22 22" fill="none" xmlns="http://www.w3.org/2000/svg">
<path d="M1.83301 17.4168L1.83301 11.9168C1.83301 11.5043 1.91704 11.13 2.08509 10.7939C2.25315 10.4578 2.47467 10.1599 2.74967 9.90016L2.74967 7.3335C2.74967 6.56961 3.01704 5.9203 3.55176 5.38558C4.08648 4.85086 4.73579 4.5835 5.49967 4.5835L9.16634 4.5835C9.51773 4.5835 9.8462 4.64858 10.1518 4.77875C10.4573 4.9083 10.74 5.08766 10.9997 5.31683C11.2594 5.08766 11.542 4.9083 11.8476 4.77875C12.1531 4.64858 12.4816 4.5835 12.833 4.5835L16.4997 4.5835C17.2636 4.5835 17.9129 4.85086 18.4476 5.38558C18.9823 5.9203 19.2497 6.56961 19.2497 7.3335L19.2497 9.90016C19.5247 10.1599 19.7462 10.4578 19.9143 10.7939C20.0823 11.13 20.1663 11.5043 20.1663 11.9168L20.1663 17.4168L18.333 17.4168L18.333 15.5835L3.66634 15.5835L3.66634 17.4168L1.83301 17.4168ZM11.9163 9.16683L17.4163 9.16683L17.4163 7.3335C17.4163 7.07377 17.3283 6.85591 17.1523 6.67991C16.977 6.50452 16.7594 6.41683 16.4997 6.41683L12.833 6.41683C12.5733 6.41683 12.3557 6.50452 12.1803 6.67991C12.0043 6.85591 11.9163 7.07377 11.9163 7.3335L11.9163 9.16683ZM4.58301 9.16683L10.083 9.16683L10.083 7.3335C10.083 7.07377 9.99531 6.85591 9.81992 6.67991C9.64392 6.50452 9.42606 6.41683 9.16634 6.41683L5.49967 6.41683C5.23995 6.41683 5.02209 6.50452 4.84609 6.67991C4.6707 6.85591 4.58301 7.07377 4.58301 7.3335L4.58301 9.16683Z" fill="#C49C74"/>
</svg>
