<svg width="31" height="31" viewBox="0 0 31 31" fill="none" xmlns="http://www.w3.org/2000/svg">
<g clip-path="url(#clip0_444_507)">
<path d="M10.1615 11.8363H13.9464C14.2568 11.8363 14.51 11.5831 14.51 11.2726C14.51 10.9622 14.2568 10.709 13.9464 10.709H10.1615C8.44201 10.709 7.04492 12.1071 7.04492 13.8256V22.2494C7.04492 23.969 8.44299 25.3661 10.1615 25.3661H18.5854C20.3049 25.3661 21.702 23.968 21.702 22.2494V18.4229C21.702 18.1125 21.4488 17.8593 21.1384 17.8593C20.8279 17.8593 20.5747 18.1125 20.5747 18.4229V22.2494C20.5747 23.3459 19.6808 24.2387 18.5855 24.2387H10.1617C9.06522 24.2387 8.17242 23.3448 8.17242 22.2494V13.8256C8.17242 12.7292 9.06621 11.8363 10.1615 11.8363Z" fill="black"/>
<path d="M23.9547 11.58C23.9547 9.85492 22.5511 8.45459 20.8294 8.45459H18.3183C18.0079 8.45459 17.7547 8.70779 17.7547 9.01823C17.7547 9.32867 18.0079 9.58186 18.3183 9.58186H20.8294C21.1816 9.58186 21.5141 9.67433 21.8014 9.83506L12.6457 18.9654C12.4905 18.6803 12.4002 18.3533 12.4002 18.0077V15.5385C12.4002 15.228 12.147 14.9748 11.8366 14.9748C11.5261 14.9748 11.2729 15.228 11.2729 15.5385V18.0077C11.2729 19.7327 12.6765 21.133 14.3983 21.133H16.9094C17.2198 21.133 17.473 20.8798 17.473 20.5694C17.473 20.259 17.2198 20.0058 16.9094 20.0058H14.3983C14.0515 20.0058 13.7246 19.9155 13.4406 19.7603L22.5887 10.6353C22.7384 10.9171 22.8254 11.2352 22.8254 11.5765V14.0457C22.8254 14.3562 23.0786 14.6093 23.389 14.6093C23.6995 14.6093 23.9526 14.3561 23.9526 14.0457V11.5765L23.9547 11.58Z" fill="black"/>
</g>
<defs>
<clipPath id="clip0_444_507">
<rect width="31" height="31" fill="white"/>
</clipPath>
</defs>
</svg>
