<svg width="18" height="17" viewBox="0 0 18 17" fill="none" xmlns="http://www.w3.org/2000/svg">
<g clip-path="url(#clip0_116_353)">
<path d="M5.67899 10.3364C2.79582 10.3364 0.450195 12.644 0.450195 15.4806C0.450195 15.7251 0.651641 15.9233 0.900195 15.9233C1.14875 15.9233 1.3502 15.7251 1.3502 15.4806C1.3502 13.1323 3.29205 11.2218 5.67899 11.2218C8.06592 11.2218 10.008 13.1323 10.008 15.4806C10.008 15.7251 10.2094 15.9233 10.458 15.9233C10.7065 15.9233 10.908 15.7251 10.908 15.4806C10.908 12.644 8.56233 10.3364 5.67899 10.3364Z" fill="black"/>
<path d="M5.67859 10.1578C7.29402 10.1578 8.60817 8.86491 8.60817 7.27566C8.60817 5.68649 7.29402 4.39355 5.67859 4.39355C4.06316 4.39355 2.74902 5.68649 2.74902 7.27566C2.74902 8.86491 4.06316 10.1578 5.67859 10.1578ZM5.67859 5.27897C6.79762 5.27897 7.70817 6.17468 7.70817 7.27566C7.70817 8.37672 6.79762 9.27243 5.67859 9.27243C4.55957 9.27243 3.64902 8.37672 3.64902 7.27566C3.64902 6.17468 4.55957 5.27897 5.67859 5.27897Z" fill="black"/>
<path d="M12.3212 7.72803C11.1345 7.72803 9.97261 8.12984 9.04906 8.85953C8.85534 9.01266 8.82441 9.29125 8.97997 9.48191C9.13554 9.6724 9.41855 9.70301 9.61261 9.54988C10.388 8.93726 11.3245 8.61344 12.3212 8.61344C14.7082 8.61344 16.65 10.5239 16.65 12.8722C16.65 13.1167 16.8515 13.3149 17.1 13.3149C17.3486 13.3149 17.55 13.1167 17.55 12.8722C17.55 10.0356 15.2044 7.72803 12.3212 7.72803Z" fill="black"/>
<path d="M12.3212 7.54887C13.9366 7.54887 15.2507 6.25594 15.2507 4.66677C15.2507 3.0776 13.9366 1.78467 12.3212 1.78467C10.7057 1.78467 9.3916 3.0776 9.3916 4.66677C9.3916 6.25594 10.7057 7.54887 12.3212 7.54887ZM12.3212 2.67009C13.4402 2.67009 14.3507 3.56579 14.3507 4.66677C14.3507 5.76775 13.4402 6.66346 12.3212 6.66346C11.2021 6.66346 10.2916 5.76775 10.2916 4.66677C10.2916 3.56579 11.2021 2.67009 12.3212 2.67009Z" fill="black"/>
</g>
<defs>
<clipPath id="clip0_116_353">
<rect width="18" height="17" fill="white"/>
</clipPath>
</defs>
</svg>
