<svg width="16" height="16" viewBox="0 0 16 16" fill="none" xmlns="http://www.w3.org/2000/svg">
<path d="M3.1783 3.69103H6.59685C6.87725 3.69103 7.10594 3.46234 7.10594 3.18194C7.10594 2.90155 6.87724 2.67285 6.59685 2.67285H3.1783C1.62516 2.67285 0.363281 3.93563 0.363281 5.48787V13.0965C0.363281 14.6496 1.62606 15.9115 3.1783 15.9115H10.7869C12.3401 15.9115 13.6019 14.6487 13.6019 13.0965V9.64027C13.6019 9.35986 13.3732 9.13118 13.0928 9.13118C12.8124 9.13118 12.5838 9.35987 12.5838 9.64027V13.0965C12.5838 14.0868 11.7764 14.8932 10.787 14.8932H3.1784C2.18807 14.8932 1.38167 14.0858 1.38167 13.0965V5.48787C1.38167 4.49753 2.18896 3.69103 3.1783 3.69103Z" fill="black"/>
<path d="M15.6362 3.45914C15.6362 1.90104 14.3684 0.63623 12.8132 0.63623H10.5452C10.2648 0.63623 10.0361 0.864924 10.0361 1.14532C10.0361 1.42572 10.2648 1.65441 10.5452 1.65441H12.8132C13.1314 1.65441 13.4317 1.73793 13.6912 1.88311L5.42155 10.1299C5.28136 9.87235 5.19982 9.57702 5.19982 9.26482V7.03457C5.19982 6.75416 4.97113 6.52548 4.69073 6.52548C4.41033 6.52548 4.18164 6.75417 4.18164 7.03457V9.26482C4.18164 10.8229 5.4494 12.0877 7.00455 12.0877H9.2726C9.55301 12.0877 9.78169 11.859 9.78169 11.5786C9.78169 11.2982 9.553 11.0695 9.2726 11.0695H7.00455C6.69133 11.0695 6.39603 10.988 6.1395 10.8478L14.4023 2.60589C14.5375 2.86044 14.6161 3.14779 14.6161 3.45602V5.68627C14.6161 5.96668 14.8448 6.19536 15.1252 6.19536C15.4056 6.19536 15.6343 5.96667 15.6343 5.68627V3.45602L15.6362 3.45914Z" fill="black"/>
</svg>
