<svg width="26" height="22" viewBox="0 0 26 22" fill="none" xmlns="http://www.w3.org/2000/svg">
<g clip-path="url(#clip0_444_483)">
<path d="M12.4023 12.3823C9.27889 12.3823 6.73779 14.9234 6.73779 18.0469C6.73779 18.3162 6.95603 18.5344 7.22529 18.5344C7.49456 18.5344 7.71279 18.3162 7.71279 18.0469C7.71279 15.4611 9.81647 13.3573 12.4023 13.3573C14.9882 13.3573 17.092 15.4611 17.092 18.0469C17.092 18.3162 17.3103 18.5344 17.5795 18.5344C17.8488 18.5344 18.067 18.3162 18.067 18.0469C18.067 14.9234 15.5259 12.3823 12.4023 12.3823Z" fill="black"/>
<path d="M12.4017 12.1859C14.1518 12.1859 15.5754 10.7621 15.5754 9.01208C15.5754 7.26213 14.1518 5.83838 12.4017 5.83838C10.6517 5.83838 9.22803 7.26213 9.22803 9.01208C9.22803 10.7621 10.6517 12.1859 12.4017 12.1859ZM12.4017 6.81338C13.614 6.81338 14.6004 7.79971 14.6004 9.01208C14.6004 10.2245 13.614 11.2109 12.4017 11.2109C11.1895 11.2109 10.203 10.2245 10.203 9.01208C10.203 7.79971 11.1895 6.81338 12.4017 6.81338Z" fill="black"/>
<path d="M19.5982 9.50977C18.3126 9.50977 17.0538 9.95223 16.0533 10.7557C15.8435 10.9244 15.8099 11.2312 15.9785 11.4411C16.147 11.6509 16.4536 11.6846 16.6638 11.5159C17.5038 10.8413 18.5184 10.4848 19.5982 10.4848C22.184 10.4848 24.2877 12.5885 24.2877 15.1744C24.2877 15.4437 24.5059 15.6619 24.7752 15.6619C25.0444 15.6619 25.2627 15.4437 25.2627 15.1744C25.2627 12.0509 22.7216 9.50977 19.5982 9.50977Z" fill="black"/>
<path d="M19.5985 9.31274C21.3486 9.31274 22.7722 7.88899 22.7722 6.13904C22.7722 4.38908 21.3486 2.96533 19.5985 2.96533C17.8485 2.96533 16.4248 4.38908 16.4248 6.13904C16.4248 7.88899 17.8485 9.31274 19.5985 9.31274ZM19.5985 3.94033C20.8108 3.94033 21.7972 4.92666 21.7972 6.13904C21.7972 7.35141 20.8108 8.33774 19.5985 8.33774C18.3862 8.33774 17.3998 7.35141 17.3998 6.13904C17.3998 4.92666 18.3862 3.94033 19.5985 3.94033Z" fill="black"/>
</g>
<defs>
<clipPath id="clip0_444_483">
<rect width="19.5" height="18.72" fill="white" transform="translate(6.25 1)"/>
</clipPath>
</defs>
</svg>
